<?xml version="1.0" encoding="utf-8"?>
<!-- Generator: Adobe Illustrator 26.0.1, SVG Export Plug-In . SVG Version: 6.00 Build 0)  -->
<svg version="1.1" id="Layer_1" xmlns="http://www.w3.org/2000/svg" xmlns:xlink="http://www.w3.org/1999/xlink" x="0px" y="0px"
	 viewBox="0 0 182 31" style="enable-background:new 0 0 182 31;" xml:space="preserve">
<style type="text/css">
	.st0{clip-path:url(#SVGID_00000023279979849092385480000004587786772537973141_);}
	.st1{fill:#5F338C;}
	.st2{enable-background:new    ;}
	.st3{fill:#222222;}
</style>
<g>
	<g id="Group_94_00000077318878524226672390000007431893220391965858_" transform="translate(0 7)">
		<g>
			<defs>
				<rect id="SVGID_1_" x="5.7" y="-3.9" width="79.3" height="24.6"/>
			</defs>
			<clipPath id="SVGID_00000116931844658220066670000014945393789119712916_">
				<use xlink:href="#SVGID_1_"  style="overflow:visible;"/>
			</clipPath>
			
				<g id="Group_93_00000093866613756525085130000017825401223442519205_" transform="translate(0 0)" style="clip-path:url(#SVGID_00000116931844658220066670000014945393789119712916_);">
				<path id="Path_21_00000035523369858969142240000005521799505529162171_" class="st1" d="M20.6,10.9c4.9-3.5,4.2-5.7,4.1-7.6
					c-0.7-4.1-4.3-7.1-8.4-7.1H5.7v24.2h6.5l0.1-8.1h1.7l5.9,8.1h7.5C27.5,20.4,25.1,17,20.6,10.9 M12.4,8.2v-8
					c4.1-0.7,5.7,1.4,5.9,4C17.8,9.4,12.4,8.2,12.4,8.2"/>
				<path id="Path_22_00000182511457803227954100000002995127083260127397_" class="st1" d="M34.6,0.2C29.1,0.1,24.5,4.5,24.3,10
					c-0.1,5.6,4.3,10.2,9.8,10.3c5.6,0.1,10.2-4.3,10.3-9.8c0-0.1,0-0.2,0-0.2C44.5,4.8,40.1,0.3,34.6,0.2 M34.6,15.4
					c-1.8,0-3.2-2.3-3.2-5.1s1.4-5.1,3.2-5.1s3.2,2.3,3.2,5.1S36.4,15.4,34.6,15.4"/>
				
					<rect id="Rectangle_27_00000098208751075153981210000008499848537166610840_" x="46" y="1.4" class="st1" width="6.4" height="19"/>
				<path id="Path_23_00000009555465930697534170000004203360843414249859_" class="st1" d="M59.7,1.4h13.1v11.3
					c0,0,0.4,4.5,3.9,2.7c1.8-1,2-1.7,2-3.3V1.4h6.4v19h-1.7l-2.6-2.5c-1.6,2-4.1,3-6.6,2.8c-2.4-0.1-7.2-0.4-7.6-7
					c0.2-8.4,0-11.3,0-11.3l-8.2,8.1l9.9,9.9h-8.1l-8.9-8.8l0.8-2.4L59.7,1.4z"/>
			</g>
		</g>
	</g>
	<g class="st2">
		<path class="st3" d="M100.2,7.5c0.1,0,0.2-0.1,0.2-0.1c0.1-0.1,0.1-0.1,0.2-0.1c0.2,0,0.4-0.1,0.5-0.2c0.1,0,0.1,0,0.3-0.1
			c-0.1,0.1-0.1,0.1-0.1,0.1c0,0,0,0,0,0c0.1,0,0.2-0.1,0.3-0.2c0,0,0-0.1,0.1-0.1c0.1-0.1,0.3-0.1,0.4-0.2c0.6-0.2,1.3-0.5,1.9-0.7
			c0.2-0.1,0.3-0.3,0.5-0.4c-0.1,0.1-0.1,0.2-0.2,0.3c0,0,0,0,0.1,0c0.2-0.2,0.3-0.4,0.5-0.6c0,0,0,0,0,0c-0.1,0.1-0.2,0.2-0.3,0.4
			c0.3-0.1,0.5-0.2,0.7-0.2c0.6-0.2,1.3-0.4,1.9-0.6c0.6-0.1,1.3-0.2,1.9-0.4c0.3-0.1,0.5,0,0.8-0.1c0.4-0.1,0.8-0.1,1.2-0.2
			c0.6-0.1,1.2-0.2,1.7-0.1c0.4,0.1,0.7,0.2,1,0.4c0.2,0.2,0.6,0.2,0.8,0.4c0.2,0.2,0.4,0.5,0.5,0.8c0.1,0.3,0.2,0.6,0.2,1
			c0,0.2,0,0.5,0,0.7c-0.1,0-0.1-0.1-0.1-0.1c-0.1,0.2-0.1,0.5-0.2,0.7c0,0.1-0.1,0.1-0.1,0.2c0-0.1-0.1-0.1-0.1-0.2
			c0-0.1-0.1-0.3-0.1-0.4c0,0-0.1,0-0.1,0c0-0.1,0-0.1,0-0.2c-0.1,0.1-0.2,0.2-0.3,0.4c0-0.2-0.1-0.5-0.1-0.7l-0.1,0.3
			c0,0-0.1,0-0.1,0c-0.1-0.2-0.1-0.4-0.3-0.5c-0.1-0.1-0.3-0.1-0.4-0.1c-0.7,0-1.3,0-2,0.1c-0.4,0-0.9,0.1-1.3,0.2
			c-0.9,0.2-1.8,0.4-2.6,0.7c-0.5,0.2-1.1,0.4-1.6,0.6c0,0-0.1,0.1-0.1,0.1c-0.6,0.9-1.2,1.7-1.9,2.6c-0.5,0.7-0.9,1.3-1.4,2
			c-0.6,0.8-1.1,1.6-1.7,2.4c-0.4,0.6-0.8,1.2-1.2,1.8c0.9-0.1,1.8-0.3,2.6-0.5c0.9-0.1,1.8-0.1,2.6-0.1c-0.4,0-0.9,0.1-1.3,0.1
			l0,0.1l0.7-0.1V17l-0.2,0c0,0,0,0,0,0c0.2,0,0.4,0,0.6-0.1c-0.1,0-0.2-0.1-0.2-0.1c0.8-0.1,1.3,0.1,1.7,0.6
			c-0.2,0.1-0.4,0.2-0.6,0.3c0.1,0.1,0.3,0.1,0.5,0.2c0,0-0.1,0.1-0.1,0.1c0.1,0,0.2,0.1,0.3,0.1c0,0.1,0.1,0.3,0.1,0.4
			c-0.1,0-0.2,0-0.3,0c-0.8,0.1-1.6,0.2-2.4,0.4c-0.6,0.1-1.2,0.3-1.8,0.5c-0.5,0.2-1.1,0.3-1.6,0.5c-0.3,0.1-0.7,0.3-1,0.5
			c-0.3,0.1-0.6,0.2-0.9,0.3c-0.1,0-0.3,0.1-0.4,0.2c-0.1,0.1-0.2,0.2-0.3,0.3c-0.4,0.8-0.8,1.5-1.2,2.3c-0.3,0.6-0.5,1.2-0.8,2
			l0.1-0.6c0,0-0.1,0-0.1,0c-0.2,0.5-0.4,0.9-0.6,1.4c-0.2,0.5-0.3,1-0.4,1.5c-0.1,0.5-0.2,0.9-0.3,1.4c0,0,0,0-0.1,0
			c0-0.2-0.1-0.4-0.1-0.5c-0.1,0.1-0.1,0.2-0.2,0.4c0,0,0,0-0.1,0c0-0.3,0-0.5,0-0.8c0,0,0-0.1,0.1-0.1c0.3-0.2,0.2-0.5,0.3-0.7
			c0.2-0.7,0.4-1.4,0.7-2.1c0.4-1.1,0.9-2.2,1.3-3.3c0.1-0.2,0.2-0.3,0.3-0.6c-0.6,0.2-0.6,0.8-0.9,1.2c0.1-0.3,0.3-0.6,0.4-0.9
			c0,0,0,0-0.1,0c-0.1,0.1-0.2,0.1-0.2,0.2c-0.2,0.6-0.5,1.2-0.7,1.8c-0.2,0.6-0.5,1.2-0.7,1.7c-0.1,0.2-0.2,0.5-0.2,0.7
			c-0.1,0.4-0.3,0.9-0.3,1.3c-0.1,0.3-0.1,0.5-0.1,0.8c0,0.1-0.1,0.3-0.1,0.4c0,0-0.1,0-0.1-0.1c-0.1-0.4-0.1-0.7,0-1.2
			c0.2-0.7,0.3-1.4,0.6-2.2c0.3-0.9,0.6-1.9,1-2.8c0-0.1,0.1-0.2,0.1-0.4c-0.5,0.2-1,0.3-1.5,0.5c-0.4,0.1-0.8,0.2-1-0.2
			c-0.1-0.1-0.2-0.2-0.4-0.4c-0.1-0.1-0.2-0.2-0.3-0.3c0.1-0.1,0.2-0.2,0.3-0.2v0c-0.1,0-0.2,0-0.3,0.1c-0.1-0.1,0.4-0.5-0.1-0.5
			c0.1-0.1,0.2-0.2,0.4-0.4c-0.1,0-0.2,0-0.2,0c0,0,0,0,0,0c0.4-0.4,0.8-0.5,1.2-0.7c0.2-0.1,0.5-0.2,0.7-0.3c0.2,0,0.4-0.2,0.6-0.2
			c0,0,0.1,0,0.2-0.1c0.6-0.3,1.2-0.5,1.8-0.8c0.2-0.1,0.3-0.2,0.4-0.4c0.4-1,1-2,1.5-3c0.2-0.4,0.3-0.8,0.1-1.2
			c0-0.1,0.1-0.3-0.1-0.4c-0.3-0.1-0.5-0.2-0.8-0.1c-0.1,0-0.3,0-0.4,0c-0.6,0.1-1.2,0.1-1.8,0.2c-0.1,0-0.2-0.1-0.2-0.1
			c0-0.1,0-0.2,0-0.3c-0.3,0.1-0.6-0.1-0.8-0.3c0.1-0.1,0.1-0.2,0.2-0.3h-0.3c0.1-0.1,0.2-0.2,0.3-0.3c-0.3,0.1-0.6,0.1-0.6-0.1
			c0-0.1-0.3-0.3,0-0.5c-0.1-0.1-0.2-0.1-0.3-0.2c0,0,0-0.2,0.1-0.3c0.1-0.1,0.3-0.2,0.3-0.5c0-0.1,0.2-0.2,0.3-0.3
			c0.4-0.3,0.9-0.6,1.3-0.8c0.8-0.4,1.5-0.9,2.3-1.1c0.4-0.1,0.8-0.4,1.1-0.5c0.1,0,0.2,0,0.2,0c0.2-0.2,0.4-0.3,0.6-0.2
			c0.1-0.2,0.3-0.1,0.4-0.3C100.1,7.5,100.2,7.5,100.2,7.5z M93.5,28c0.5-2,1-4,1.8-6C94.4,23.9,93.2,27.6,93.5,28z M94.6,26.6
			c-0.2,0.7-0.6,1.3-0.5,2L94.6,26.6z M96.3,9.7c-0.3,0.2-0.5,0.3-0.7,0.4c-0.2,0.1-0.5,0.3-0.7,0.4C95.2,10.6,96,10.1,96.3,9.7z
			 M96.2,10.9c0.1,0,0.2-0.1,0.4-0.1c0.3-0.2,0.6-0.3,0.9-0.5c0.8-0.4,1.7-0.8,2.5-1.2c0.6-0.3,1.2-0.5,1.9-0.8
			c0.2-0.1,0.4-0.2,0.7-0.3c0,0,0,0,0-0.1C100.4,8.7,98.3,9.7,96.2,10.9C96.2,10.9,96.2,10.9,96.2,10.9z M96.8,18.3
			C96.8,18.3,96.9,18.3,96.8,18.3c0.5-0.6,0.9-1.2,1.1-2C97.5,16.9,97.2,17.6,96.8,18.3z M98.3,16.5c-0.2,0.5-0.4,0.9-0.6,1.4
			c0,0,0.1,0,0.1,0c0.2-0.4,0.4-0.9,0.6-1.4C98.4,16.5,98.4,16.5,98.3,16.5z M98,17.9c0.3-0.2,0.2-0.5,0.4-0.8
			C98.3,17.4,98.1,17.6,98,17.9C98,17.9,98,17.9,98,17.9z M98.3,17c0.4-0.5,0.5-1,0.6-1.5C98.7,15.9,98.5,16.4,98.3,17z M99.9,12.1
			c0.2-0.3,0.3-0.5,0.5-0.8c0.1-0.2,0.2-0.3,0.4-0.6c-0.7,0.4-1.3,0.7-1.9,1c0.1,0.1,0.3,0.2,0.3,0.3c0.1,0.1,0.1,0.2,0.2,0.3
			c0,0.1,0.1,0.2,0.1,0.4C99.6,12.5,99.7,12.3,99.9,12.1z M101.3,12.8c0.2-0.3,0.4-0.7,0.6-1c-0.8,0.5-1,1.2-1.4,1.8
			c-0.7,1-0.8,1.4-0.9,2c1-1.5,2-3,3-4.5c0,0,0,0-0.1,0C102.2,11.6,101.7,12.2,101.3,12.8C101.3,12.8,101.3,12.8,101.3,12.8z
			 M101.6,11.3C101.6,11.4,101.5,11.4,101.6,11.3c-0.5,0.7-0.9,1.3-1.3,1.9c-0.2,0.2-0.3,0.5-0.5,0.7c0,0.1,0,0.2-0.1,0.3
			c0,0,0,0.1,0,0.1c0,0.1,0,0.1,0,0.2c0,0,0,0,0.1,0C100.4,13.4,101,12.4,101.6,11.3C101.6,11.3,101.6,11.3,101.6,11.3z M100.2,15.1
			C100.2,15.1,100.2,15.1,100.2,15.1l1.1-1.7C100.9,14,100.5,14.5,100.2,15.1z M100.6,11.6c0.2-0.3,0.4-0.7,0.7-1
			C101,10.7,100.6,11.3,100.6,11.6z M103.2,9.6c-0.2,0.1-0.5,0.5-0.5,0.8C102.9,10.1,103,9.9,103.2,9.6z"/>
		<path class="st3" d="M108.7,27.1c0.2-0.1,0.2-0.3,0.4-0.4c0.2-0.2,0.3-0.4,0.5-0.7c0.1-0.1,0.2-0.2,0.3-0.3c-0.3,0.5-0.6,1-1,1.5
			c-0.3,0.5-0.7,0.9-1.1,1.4c-0.4,0.4-0.8,0.8-1.2,1.1c-0.3,0.3-0.8,0.2-1,0c-0.3-0.4-0.5-0.7-0.7-1.1c-0.2-0.3-0.3-0.6-0.2-1.1
			c0-0.1,0-0.2-0.1-0.2l-0.1,0.3c0,0,0,0,0,0c0-0.3,0-0.6,0-0.9c-0.1-0.5,0.2-1,0.1-1.5c0-0.3,0.2-0.5,0.2-0.8c0-0.1,0.2-0.3,0-0.4
			c-0.1,0,0-0.2,0.1-0.4c0,0-0.1,0.1-0.1,0.1c0,0,0,0-0.1,0c0.2-0.4,0.3-0.9,0.5-1.3c0.1-0.2,0.1-0.3,0.1-0.5c0.2-0.9,0.6-1.7,1-2.6
			c0.3-0.6,0.6-1.3,0.8-1.9c0.3-0.6,0.6-1.3,0.9-1.9c0.2-0.4,0.3-0.8,0.5-1.1c0.2-0.5,0.4-0.9,0.7-1.4c0.2-0.4,0.5-0.8,0.7-1.2
			c0.3-0.5,0.6-1,0.9-1.5c0.4-0.6,0.8-1.2,1.2-1.8c0.3-0.4,0.5-0.7,0.8-1c0.3-0.4,0.7-0.8,0.9-1.2c0.1-0.3,0.3-0.2,0.4-0.3
			c0,0.1-0.1,0.2-0.1,0.3c0,0,0.1,0,0.1,0c0.1-0.2,0.2-0.3,0.4-0.5c0.1-0.1,0.2-0.1,0.2-0.1c0.1,0,0.2,0,0.2-0.1c0.1,0,0.1,0,0.2,0
			c0,0.1,0,0.2,0,0.2c-0.1,0.3-0.3,0.6-0.4,0.9c0.2-0.2,0.3-0.4,0.5-0.6c0.1,0.3-0.2,0.5-0.2,0.8c0,0.2-0.3,0.5-0.4,0.7
			c0,0,0,0,0.1,0.1c0.2-0.2,0.4-0.5,0.7-0.7c-0.2,0.4-0.3,0.8-0.5,1.1l0,0c0.1-0.2,0.2-0.3,0.4-0.5c0,0.1,0.1,0.2,0.1,0.3
			c-0.1,0.2-0.2,0.4-0.3,0.6c-0.3,0.5-0.6,1.1-1,1.6c-0.4,0.6-0.8,1.3-1.3,1.9c-0.4,0.7-0.9,1.5-1.3,2.2c-0.4,0.7-0.8,1.5-1.2,2.2
			c0,0.1-0.1,0.2-0.1,0.3c-0.1,0.2-0.2,0.3-0.3,0.4c-0.1,0.1-0.1,0.4-0.1,0.5c0,0.1-0.1,0.1-0.2,0.1c-0.3,0.6-0.6,1.2-0.9,1.7
			c-0.3,0.6-0.5,1.2-0.8,1.7c-0.2,0.5-0.4,1.1-0.7,1.6c0.1-0.7,0.5-1.3,0.7-2c-0.7,1.7-1.5,3.4-1.9,5.2c0-0.1,0-0.2,0.1-0.3
			c0,0,0,0,0,0l-0.3,0.9c0,0,0.1,0,0.1,0c0-0.1,0.1-0.3,0.1-0.4c0,0,0.1,0,0.1,0l-0.3,1c0.6-0.1,0.9-0.6,1.2-0.9
			c0.2-0.2,0.4-0.3,0.6-0.5c0,0,0,0,0,0c0.2-0.2,0.3-0.5,0.5-0.7c0.2-0.3,0.4-0.5,0.6-0.8c0.3-0.4,0.7-0.9,1.1-1.3
			c0.4-0.5,0.8-1,1.3-1.4c0.4-0.4,0.8-0.9,1.2-1.3c0.1-0.1,0.3-0.2,0.5-0.3c-0.1,0.1-0.1,0.1-0.1,0.2c0,0.1,0.1,0.2,0.1,0.4
			c0.1-0.1,0.2-0.1,0.3-0.2c0,0.4-0.4,0.6-0.6,0.9c-0.3,0.4-0.8,0.7-1,1.2c-0.3,0.5-0.7,1-1,1.5c-0.8,1.2-1.7,2.3-2.5,3.4
			c0,0,0,0,0,0.1c1.5-1.9,2.9-3.8,4.4-5.7c0,0,0,0,0,0c-0.7,1-1.4,1.9-2.2,2.9c0,0,0,0,0.1,0l0.2-0.2c-0.2,0.3-0.4,0.6-0.6,1
			c-0.3,0.4-0.6,0.8-0.8,1.2c-0.3,0.4-0.6,0.8-0.9,1.3c0,0-0.1,0.1-0.1,0.1l0,0c-0.2,0.3-0.6,0.4-0.8,0.7c0.4-0.1,0.6-0.3,0.9-0.7
			C108.2,27.7,108.4,27.4,108.7,27.1z M105.8,21.7l0.3-0.9c0,0,0,0-0.1,0c-0.1,0.3-0.2,0.6-0.3,0.9
			C105.7,21.7,105.8,21.7,105.8,21.7z M106.2,29.4c-0.2,0.1-0.3,0.2-0.5,0.3c0.4,0.1,0.7-0.3,1-0.5c-0.3-0.1-0.7-0.1-0.8,0.2
			C106,29.4,106.1,29.4,106.2,29.4z M106.4,23.1l-0.3,0.9h0C106.3,23.7,106.4,23.4,106.4,23.1C106.5,23.1,106.5,23.1,106.4,23.1z
			 M107.6,17.9c-0.2,0.4-0.3,0.7-0.5,1.1c0,0,0,0,0.1,0L107.6,17.9C107.7,18,107.6,18,107.6,17.9z M108.2,18.7
			c-0.2,0.5-0.4,1-0.7,1.5c0,0,0,0,0,0c0,0,0.1-0.1,0.1-0.1c0,0,0,0,0,0l-0.2,0.6c0,0,0.1,0,0.1,0L108.2,18.7
			C108.3,18.7,108.2,18.7,108.2,18.7z M112,13.1c-0.2,0.3-0.4,0.5-0.5,0.8c-0.1,0.1-0.1,0.2-0.1,0.3c-0.2,0.3-0.4,0.5-0.6,0.8
			c-0.2,0.3-0.4,0.5-0.5,0.8c-0.1,0.2-0.4,0.5-0.2,0.7c0,0,0.1-0.1,0.1-0.1c-0.1-0.1-0.1-0.2,0.1-0.3c0,0,0-0.1,0-0.1
			c0.4-0.8,0.9-1.5,1.3-2.3C111.8,13.6,111.9,13.3,112,13.1C112,13.1,112,13.1,112,13.1z M111.4,13.2c0.2-0.2,0.3-0.5,0.4-0.7l0,0
			C111.6,12.7,111.5,13,111.4,13.2C111.4,13.2,111.4,13.2,111.4,13.2z M113.8,9.8c-0.2,0.3-0.4,0.6-0.6,1c-0.1,0.2-0.2,0.3-0.3,0.5
			c-0.1,0.2-0.2,0.4-0.3,0.5l0.1,0c0.1-0.1,0.2-0.3,0.2-0.4C113.1,10.9,113.5,10.3,113.8,9.8c0.3-0.3,0.5-0.6,0.7-0.9
			c0,0-0.1,0-0.1,0C114.2,9.1,114,9.4,113.8,9.8C113.8,9.7,113.8,9.8,113.8,9.8z"/>
		<path class="st3" d="M117.2,24.4c0-0.1-0.1-0.3-0.2-0.4c-0.2-0.3-0.4-0.7-0.4-1c0-0.5,0.1-0.9,0.3-1.4c0.1-0.2,0.1-0.5,0.2-0.7
			c-0.2,0.2-0.4,0.4-0.6,0.5c-0.5,0.5-1,1.1-1.6,1.6c-0.4,0.3-0.8,0.6-1.2,0.9c-0.1,0.1-0.2,0.1-0.3,0.2c-0.2,0.1-0.3,0-0.4-0.1
			c-0.1-0.1-0.2-0.2-0.3-0.3c-0.2-0.2-0.4-0.4-0.5-0.8c0-0.1-0.1-0.1-0.1-0.2c-0.2-0.4-0.2-0.8-0.1-1.3c0.2-1.1,0.7-2.1,1.4-3.1
			c0.6-0.8,1.4-1.5,2.2-2c0.5-0.3,1-0.5,1.5-0.4c0.4,0,0.6,0.2,0.8,0.5c0.1,0.1,0.2,0.3,0.3,0.5c0.5-0.5,0.9-0.9,1.3-1.3
			c0.6-0.6,1.2-1.2,1.7-1.8c0,0,0.1-0.1,0.1-0.1c0.2-0.2,0.2-0.2,0.5-0.2c-0.1,0.1-0.2,0.2-0.2,0.3l0,0c0.2-0.1,0.3-0.2,0.5-0.3
			c0,0,0,0,0,0c-0.2,0.2-0.3,0.5-0.5,0.8c0.2-0.2,0.4-0.4,0.5-0.5c0,0,0.1,0,0.1,0.1c0,0.2,0.2,0.4,0,0.7c0,0,0.1-0.1,0.2-0.1
			c-0.1,0.2-0.1,0.3-0.2,0.4c-0.6,0.9-1.2,1.8-1.8,2.7c-0.3,0.4-0.5,0.9-0.7,1.3c-0.2,0.3-0.3,0.6-0.5,0.9c-0.2,0.3-0.4,0.7-0.5,1
			c-0.2,0.5-0.4,1-0.6,1.5c-0.1,0.3-0.4,0.7-0.4,1c0,0.1,0,0.2-0.1,0.2c0.5-0.1,0.9-0.3,1.3-0.6c0.8-0.5,1.4-1.2,2-1.9
			c0.3-0.3,0.6-0.6,0.9-0.9c-0.1,0.2-0.2,0.3-0.3,0.5c0,0,0,0,0.1,0c0.1-0.1,0.2-0.2,0.4-0.4c0.1,0.2,0.2,0.4,0.3,0.7
			c0,0.1-0.1,0.2-0.1,0.3c-0.5,0.8-1.1,1.5-1.8,2.2c0-0.1,0.1-0.1,0.1-0.2c0,0,0,0,0,0c-0.2,0.2-0.4,0.3-0.5,0.5
			c-0.4,0.5-0.9,0.8-1.4,1c-0.2,0.1-0.4,0.1-0.6,0.2c0,0,0,0-0.1,0.1c0,0-0.1,0-0.1,0C117.5,24.9,117.3,24.7,117.2,24.4z
			 M114.1,19.9c0.2-0.2,0.3-0.5,0.5-0.7c0,0,0,0,0,0C114.4,19.4,114.2,19.6,114.1,19.9C114.1,19.9,114.1,19.9,114.1,19.9z
			 M114.5,20.7c0.5-0.5,1.1-1,1.6-1.5c0.3-0.3,0.5-0.5,0.8-0.8l0.8-0.8c0,0,0,0,0-0.1c-0.1,0-0.2,0-0.2,0.1
			c-0.3,0.1-0.5,0.3-0.8,0.4c-1,0.8-1.7,1.8-2.4,2.8C114.4,20.8,114.4,20.8,114.5,20.7z M117.7,17.1c-0.2,0-0.4,0-0.5,0.1
			c-0.5,0.2-1,0.6-1.4,1c0,0.1-0.1,0.1-0.1,0.2c0.7-0.5,1.3-1,2.1-1.1C117.8,17.3,117.8,17.1,117.7,17.1z M116.7,20.5
			c-0.2,0.2-0.4,0.5-0.6,0.7c0,0,0,0,0,0C116.4,21,116.6,20.8,116.7,20.5C116.8,20.6,116.7,20.6,116.7,20.5z M118,25
			c0.3,0.2,0.6-0.1,0.9-0.2c0.1,0,0.2-0.1,0.3-0.1c-0.4,0.4-0.8,0.6-1.2,0.5C117.9,25.2,117.9,25.1,118,25C117.9,25,117.9,25,118,25
			z M118,24.6c0.2,0,0.4,0,0.6-0.1c0.2-0.1,0.3-0.2,0.5-0.3c0.2-0.1,0.3-0.3,0.5-0.5C119.1,24,118.6,24.3,118,24.6z M118.2,21.4
			l0.8-1.9c0,0,0,0-0.1,0C118.6,20.1,118.4,20.7,118.2,21.4C118.1,21.4,118.1,21.4,118.2,21.4z M119.4,23.6
			c-0.4,0.2-0.8,0.4-1.1,0.6C118.5,24.3,119.3,23.9,119.4,23.6z M120.2,22.8c-0.2,0.3-0.6,0.4-0.8,0.7c0.6-0.4,1.1-0.9,1.5-1.4
			C120.7,22.3,120.5,22.6,120.2,22.8z"/>
		<path class="st3" d="M125.4,25.5c0-0.1,0-0.1-0.1-0.2c0,0.1,0,0.2-0.1,0.3c-0.3,0.6-0.9,1-1.5,1.2c-0.1,0.1-0.2-0.1-0.3,0
			c-0.3,0-0.7,0.2-1,0c-0.2-0.1-0.4-0.1-0.6-0.1c-0.5-0.1-1-0.2-1.4-0.3c-0.4-0.2-0.8-0.4-1.2-0.6c0,0,0-0.1-0.1-0.1
			c-0.1-0.2-0.2-0.4-0.4-0.5c-0.2-0.1-0.2-0.3-0.3-0.5c0,0,0.1,0,0.1,0c0.1-0.1,0.1-0.2,0.2-0.3c0.3,0,0.6,0.1,0.9,0.1
			c0.3,0,0.6,0.1,0.8,0.1c0.3,0,0.6,0,0.8,0c0.3,0.1,0.7,0,1-0.1c0.4-0.1,0.9-0.3,1.2-0.7c0-0.1,0-0.2,0-0.3c-0.3-0.5-0.6-1-0.9-1.5
			c-0.2-0.3-0.2-0.8-0.3-1.1c0-0.2-0.2-0.4-0.1-0.6c0-0.5,0.1-0.9,0.2-1.4c0.1-0.4,0.4-0.8,0.6-1.2c0.3-0.4,0.6-0.8,1-1.1
			c0.4-0.3,0.8-0.7,1.2-1c0.5-0.3,1-0.7,1.5-0.9c0.5-0.3,1.1-0.6,1.6-0.5c0.3,0,0.6,0.1,0.9,0.2c0.1,0,0.1,0.1,0.2,0.2
			c0,0,0,0.1,0,0.1c-0.1,0.2-0.1,0.3,0.1,0.4c-0.2,0.1-0.2,0.2-0.2,0.3c0,0,0,0.1,0,0.2c-0.2,0-0.4,0.1-0.5,0.1c0,0.1,0,0.2-0.1,0.2
			c-0.4,0.2-0.6,0.6-0.9,0.8c-1,0.8-1.9,1.7-2.7,2.7c-0.4,0.5-0.7,1.1-0.9,1.7c0,0.1,0,0.3,0.1,0.4c0.2,0.3,0.4,0.5,0.5,0.8
			c0.1,0.1,0.1,0.2,0.2,0.3c0.1,0,0,0.3,0.2,0.1c0,0,0.1,0.1,0,0.1c-0.2,0.2,0,0.3,0,0.4c0.1,0.5,0.2,1.1,0.2,1.7
			c0,0.2,0.1,0.3,0.1,0.5c0,0.1,0,0.2,0,0.3c0,0,0,0-0.1,0C125.4,25.6,125.4,25.6,125.4,25.5z M123.7,25.3c-0.4,0.1-0.7,0.3-1.1,0.4
			C122.9,25.8,123.4,25.7,123.7,25.3z M125.3,17c1.1-0.9,2.3-1.6,3.7-2c-0.1-0.2-0.3-0.1-0.6,0c-0.2,0.1-0.4,0.2-0.6,0.3
			c-0.3,0.2-0.7,0.3-0.9,0.5C126.3,16.1,125.8,16.5,125.3,17C125.3,16.9,125.3,16.9,125.3,17z M128.7,15.4c-0.1,0-0.2,0.1-0.3,0.1
			c-0.3,0.2-0.6,0.3-0.8,0.5l0,0c0.5-0.2,1.1-0.4,1.6-0.7C129.1,15.2,128.9,15.3,128.7,15.4z"/>
		<path class="st3" d="M133.7,18.1c0.3-0.4,0.8-0.7,1.3-1c-0.1,0-0.1,0.1-0.2,0.1c0,0,0,0,0,0.1c0.1,0,0.2,0,0.2-0.1
			c0.4-0.4,0.8-0.1,1,0.2c0,0.1,0,0.3,0.2,0.2c0,0,0.1,0.1,0.1,0.2c0.1,0.1,0.2,0.2,0.2,0.3c0,0.2,0.2,0.3,0,0.5
			c0.2,0.2,0.1,0.5,0.2,0.7c0,0.2,0,0.4,0,0.6c0,0.4-0.1,0.9-0.1,1.3c0,0.1-0.1,0.2-0.1,0.3c-0.2,0.6-0.4,1.3-0.6,1.9
			c-0.1,0.1-0.1,0.3-0.1,0.4c1-0.3,1.7-0.9,2.4-1.6c0.6-0.5,1.1-1.1,1.7-1.7c0,0,0.1-0.1,0.2-0.1c0,0,0,0,0.1,0.1l-1.5,1.7l0,0
			c0.1-0.1,0.2-0.1,0.2-0.2c0.1-0.1,0.1-0.2,0.2-0.2c0.2-0.1,0.3-0.4,0.6-0.4c0.2,0,0.3-0.3,0.5-0.5c0.1-0.1,0.2-0.2,0.3-0.3
			c0,0,0,0,0.1,0c0,0.1-0.1,0.2-0.1,0.3c-0.4,0.5-0.8,1-1.3,1.6c-0.2,0.3-0.4,0.5-0.6,0.8c0,0,0,0,0,0c0.1-0.1,0.2-0.2,0.3-0.3
			c0.7-0.5,1.2-1.2,1.8-1.8c0,0,0,0,0.1,0c-0.1,0.2-0.2,0.5-0.4,0.7c-0.3,0.4-0.5,0.8-0.8,1.1c-0.1,0.2-0.3,0.3-0.5,0.5
			c-0.4,0.4-0.7,0.9-1.1,1.3c-0.4,0.4-0.9,0.9-1.4,1.1c-0.5,0.3-0.9,0.2-1.2-0.3c-0.1-0.1-0.3-0.2-0.4-0.3c-0.2-0.2-0.3-0.5-0.4-0.7
			c-0.1-0.3-0.3-0.5-0.4-0.8c-0.1-0.1-0.1-0.3-0.1-0.4c0.1-0.7,0.2-1.5,0.4-2.2c0.1-0.2,0.1-0.4,0.2-0.7c-1.8,1.6-3.1,3.4-4.3,5.4
			c0-0.1,0-0.2,0.1-0.3c0.2-0.3,0.3-0.7,0.5-1c0.1-0.2,0.3-0.4,0.5-0.7c0.5-0.7,1.1-1.4,1.6-2.1c0.4-0.5,0.8-0.9,1.2-1.4
			c0.1-0.1,0.2-0.2,0.3-0.3c0.1-0.2,0.3-0.3,0.4-0.5c-0.4,0-0.2,0.7-0.6,0.6c-0.2,0.1-0.3,0.2-0.4,0.3c-0.1,0.1-0.3,0.1-0.4,0.2
			c0.2-0.2,0.4-0.4,0.6-0.6c0.2-0.2,0.4-0.3,0.5-0.6c-0.2,0.1-0.3,0.2-0.4,0.3c-0.2,0.1-0.3,0.3-0.4,0.4c0,0,0,0-0.1-0.1
			c0.2-0.2,0.3-0.4,0.5-0.6c0.2-0.2,0.4-0.4,0.5-0.5c0,0,0,0,0,0c-0.2,0.2-0.3,0.3-0.5,0.4c-0.7,0.8-1.4,1.6-2,2.4
			c-0.3,0.3-0.4,0.8-0.8,1.1c-0.3,0.3-0.5,0.6-0.7,0.9c-0.2,0.3-0.4,0.7-0.6,1.1c-0.2,0.4-0.5,0.9-0.7,1.3c-0.1,0.3,0,0.5,0,0.7
			c0,0.2,0,0.3-0.2,0.3c0.1,0.2,0.2,0.3,0.3,0.5c0,0,0,0-0.1,0c-0.1,0-0.1-0.1-0.2-0.1c0,0.1,0,0.2-0.1,0.2c0,0-0.1,0-0.1,0
			c-0.1,0-0.1,0-0.2-0.1c-0.3-0.3-0.4-0.7-0.6-1.1c-0.3-0.8,0-1.6-0.1-2.4c0-0.5,0.2-1.1,0.3-1.6c0.1-0.8,0.4-1.6,0.6-2.4
			c0.2-0.7,0.5-1.4,0.8-2.1c0.1-0.2,0.2-0.5,0.3-0.7c0.1-0.4,0.3-0.7,0.4-1.1c0.1-0.3,0.3-0.6,0.5-0.9c0.3-0.5,0.5-1,0.8-1.5
			c0.2-0.5,0.5-1,0.8-1.4c0.4-0.7,0.9-1.5,1.4-2.2c0.5-0.8,1.1-1.6,1.6-2.4c0.4-0.6,0.9-1.2,1.4-1.7c0.3-0.3,0.5-0.7,0.8-1
			c0.1-0.1,0.3-0.3,0.4-0.4c0.1-0.1,0.2-0.2,0.3-0.3c0,0.1,0.1,0.3,0.1,0.5c0.1-0.1,0.2-0.1,0.4-0.2c-0.1,0.2-0.1,0.3-0.1,0.4l0.1,0
			c0,0.1,0,0.2,0,0.3c0,0.2-0.1,0.4-0.2,0.6c0,0,0,0,0.1,0c0.2-0.2,0.3-0.3,0.5-0.5c0,0.1,0,0.2,0.1,0.3c0.1,0.1,0.1,0.1,0.2,0.2
			c0,0,0.1,0,0.1,0c-0.1,0.3-0.2,0.6-0.3,0.8c-0.2,0.4-0.4,0.7-0.6,1c-0.2,0.3-0.4,0.6-0.6,0.9c-0.4,0.5-0.7,1.1-1.1,1.6
			c-0.8,1.1-1.5,2.2-2.3,3.3c-0.4,0.7-0.9,1.4-1.3,2.1c-0.5,0.8-0.9,1.7-1.3,2.5c-0.3,0.5-0.6,1.1-0.8,1.6c-0.2,0.5-0.4,1-0.6,1.5
			c0.6-0.7,1.2-1.4,1.7-2.1c0.3-0.3,0.6-0.7,0.9-1c0,0,0.1,0,0.1,0c0.3-0.2,0.5-0.4,0.8-0.6c0.1-0.1,0.3-0.2,0.4-0.3
			c-0.3-0.1-0.4,0.1-0.6,0.2c-0.2,0.2-0.5,0.4-0.7,0.6C133.4,18.4,133.6,18.3,133.7,18.1z M130.2,24.5
			C130.3,24.5,130.3,24.5,130.2,24.5c-0.3,0.7-0.6,1.3-0.9,2c0,0,0,0-0.1,0L130.2,24.5z M132,22.2L132,22.2l0.5-0.7l0,0L132,22.2z
			 M135.6,22.4c0-0.1,0.1-0.1,0.1-0.2c0-0.1,0-0.1,0-0.2c0.1-0.3,0.3-0.6,0.1-0.9c0,0,0,0,0-0.1c0.2-0.3,0.2-0.7,0.2-1.1
			c-0.3,1.2-0.6,2.4-1,3.7c0.1-0.1,0.2-0.1,0.2-0.1C135.4,23.1,135.5,22.8,135.6,22.4z M136.6,24.7c0,0.1-0.1,0.1-0.1,0.2
			c0,0,0,0,0.1,0.1c0.2-0.2,0.5-0.4,0.7-0.6c-0.6,0.2-1.2,0.5-1.7,0.7C136,25,136.3,24.9,136.6,24.7z M135.7,25.3
			c0.4,0.5,0.7-0.1,1.1-0.2C136.4,25.2,136.1,25.2,135.7,25.3z M136.8,24.8c0.8-0.3,1.4-0.9,1.8-1.5C138,23.9,137.4,24.4,136.8,24.8
			z"/>
		<path class="st3" d="M138.8,29.3c0,0.1,0,0.2-0.1,0.2c-0.1,0-0.2,0-0.2,0c-0.3-0.4-0.5-0.8-0.6-1.3c-0.1-0.2,0-0.4,0-0.6
			c0,0-0.1,0-0.1,0l-0.1,0.3c0,0-0.1,0-0.1,0c0-0.5,0-0.9,0-1.4s0.1-0.9,0.3-1.4c0.2-0.6,0.4-1.2,0.6-1.8c0.2-0.5,0.5-1,0.6-1.4
			c0.2-0.9,0.7-1.7,1.1-2.5c0.5-1,1-1.9,1.6-2.8c0.3-0.6,0.7-1.2,1-1.8c0.2-0.3,0.4-0.6,0.6-0.8c0.1-0.2,0.2-0.4,0.3-0.5
			c0.1-0.1,0.2-0.2,0.3-0.3c0-0.1,0-0.2,0.1-0.2c0.1-0.2,0.3-0.4,0.4-0.6c0.1-0.2,0.3-0.5,0.5-0.7c0.6-0.8,1.1-1.6,1.6-2.3
			c0.5-0.8,1.1-1.5,1.6-2.3c0.6-0.8,1.1-1.5,1.7-2.2c0.1,0,0.3,0.1,0.4,0.1c-0.1,0.2-0.2,0.6-0.3,0.9c0.2-0.3,0.4-0.6,0.6-0.9
			c0,0,0.1,0,0.1,0c-0.1,0.2-0.2,0.4-0.3,0.6c0,0.1,0,0.1,0,0.2c0,0.2,0,0.4-0.1,0.6c0,0,0,0,0.1-0.1c0,0,0,0,0,0
			c-0.2,0.3-0.3,0.6-0.5,0.8c0,0,0,0,0,0c0.2-0.3,0.4-0.5,0.6-0.8c0.1-0.1,0.1-0.2,0.2-0.3c0,0,0.1,0,0.2-0.1c0,0.2,0,0.3-0.1,0.5
			c-0.1,0.2-0.2,0.3-0.3,0.5c0,0,0,0,0.1,0c0.1-0.2,0.3-0.3,0.4-0.5c0.2,0.3,0,0.7-0.2,1c-0.7,1.2-1.4,2.3-2.1,3.5
			c-0.4,0.6-0.9,1.2-1.3,1.8c-0.5,0.7-1,1.4-1.5,2.1c-0.4,0.5-0.7,1.1-1.1,1.7c-0.2,0.3-0.4,0.6-0.6,0.9c0-0.1,0-0.1,0-0.1
			c-0.2,0.4-0.6,0.8-0.7,1.2c-0.1,0.1-0.2,0.2-0.3,0.3c-0.7,1.3-1.4,2.6-2.1,3.9c-0.1,0.2-0.2,0.4-0.3,0.6c-0.3,0.7-0.6,1.3-0.8,2
			c-0.2,0.6-0.4,1.2-0.6,1.7c0,0.1,0,0.2,0,0.3c0.2-0.3,0.3-0.7,0.5-1c0.3-0.5,0.6-1.1,0.9-1.6c0.3-0.5,0.6-1.1,0.9-1.6
			c0.3-0.5,0.7-0.9,1-1.4c0.4-0.5,0.8-1,1.2-1.5c0.5-0.6,1-1.2,1.7-1.7c0,0,0.1-0.1,0.1-0.1c0,0,0,0,0-0.1c-0.2,0.1-0.3,0.3-0.5,0.4
			c0,0,0,0-0.1,0c0-0.1,0.1-0.2,0.1-0.2c0.5-0.3,0.9-0.7,1.4-1c0.2-0.1,0.4-0.2,0.6-0.2c0.4-0.2,0.6,0.1,0.9,0.2
			c0.3,0.1,0.4,0.4,0.4,0.7c0,0.5,0.2,0.8,0.3,1.3c0,0.4-0.1,0.9-0.1,1.3c0,0.5-0.3,1-0.5,1.5c-0.2,0.4-0.4,0.9-0.8,1.3
			c-0.5,0.6-1.1,1.2-1.7,1.8c-0.2,0.2-0.6,0.4-0.9,0.6c-0.1,0.1-0.2,0.1-0.2,0.2c0.1-0.1,0.3-0.1,0.4-0.2c0,0,0,0,0,0
			c0,0-0.1,0.1-0.1,0.1c-0.6,0.4-1.2,0.7-1.9,0.7c-0.2,0-0.3-0.1-0.5-0.1c-0.1,0-0.1-0.1-0.1-0.2c-0.3,0.1-0.3-0.2-0.5-0.4
			c-0.2-0.2-0.3-0.5-0.5-0.7c-0.4,0.8-1.2,1.3-1.6,2.1c0,0,0,0-0.1,0c0.2-0.4,0.5-0.9,0.8-1.3c0.1-0.1,0.1-0.3,0.1-0.4
			c0,0,0,0-0.1,0c-0.3,0.5-0.6,1-0.9,1.5c0,0-0.1,0-0.1,0c-0.3,0.4-0.6,0.8-0.4,1.3c0.1,0.2-0.1,0.4-0.5,0.4
			C138.7,29.2,138.7,29.2,138.8,29.3z M139.1,27.2c0.1-0.2,0.1-0.3,0.2-0.5c0.3-0.8,0.6-1.7,1-2.5c0.3-0.7,0.6-1.3,0.9-2
			c0.4-0.8,0.9-1.7,1.3-2.5c0.1-0.1,0.1-0.3,0.2-0.4c0,0,0,0-0.1,0c-0.1,0.2-0.3,0.3-0.4,0.5c-0.1,0.1-0.1,0.2-0.1,0.3
			c-0.1,0.3-0.3,0.5-0.5,0.8c0,0.1,0,0.1-0.1,0.2c-0.2,0.4-0.4,0.7-0.6,1.1c-0.1,0.2-0.2,0.3-0.3,0.5c-0.1,0.3-0.3,0.6-0.4,0.9
			c-0.1,0.4-0.3,0.7-0.5,1.1c-0.1,0.3-0.2,0.6-0.3,0.9C139.3,26.1,139.2,26.7,139.1,27.2C139,27.2,139.1,27.2,139.1,27.2z
			 M141.7,24.1c0.8-0.9,1.5-1.9,2.3-2.8c0.8-1,1.7-1.7,2.7-2.5c-0.2,0.1-0.4,0.2-0.6,0.3c-0.5,0.4-1,0.9-1.5,1.3
			c-1,1-1.9,2.2-2.8,3.3C141.7,23.9,141.7,24,141.7,24.1C141.7,24.1,141.7,24.1,141.7,24.1z M146.7,19.6c-0.1,0-0.2,0-0.3,0.1
			c-0.6,0.5-1.2,0.9-1.7,1.5c-0.9,1-1.8,2.1-2.7,3.1c-0.1,0.2-0.2,0.4,0,0.6c0.1,0.2,0.3,0,0.4-0.1c0.1,0,0.2,0,0.3-0.1
			c0.8-0.3,1.4-0.9,2-1.5c0.4-0.4,0.7-0.8,1.1-1.2c0.4-0.5,0.7-1,1-1.5c0.2-0.3,0.3-0.7,0.5-1c-0.1,0-0.1,0-0.2,0
			C147,19.4,146.8,19.5,146.7,19.6z M143.9,16c-0.2,0.3-0.4,0.6-0.6,0.9c0,0,0,0,0.1,0C143.6,16.7,143.8,16.4,143.9,16
			C144,16,143.9,16,143.9,16z M144.2,25.3c0.5-0.4,1.1-0.8,1.4-1.4L144.2,25.3C144.2,25.2,144.2,25.3,144.2,25.3z M145.5,18.9
			c0.5-0.3,1-0.6,1.6-1C146.6,18,145.7,18.5,145.5,18.9z M146.4,18c0.3-0.1,0.6-0.3,1-0.4C147.3,17.4,146.7,17.7,146.4,18z
			 M147.1,11.3c0.1,0,0.2-0.1,0.2-0.2c0.1-0.2,0.2-0.4,0.4-0.5c0.3-0.4,0.6-0.7,0.8-1.2c0.1-0.2,0.2-0.4,0.4-0.5
			c0.5-0.3,0.4-0.7,0.7-1c0,0,0,0,0-0.1C148.6,8.9,147.9,10.1,147.1,11.3z M148,17.8c0.1,0.1,0.1,0.3,0.2,0.4c0,0,0.1,0,0.1-0.1
			c-0.1-0.1-0.1-0.3-0.1-0.4C148.1,17.7,148.1,17.8,148,17.8z"/>
		<path class="st3" d="M154.7,24.4c0-0.1-0.1-0.3-0.2-0.4c-0.2-0.3-0.4-0.7-0.4-1c0-0.5,0.1-0.9,0.3-1.4c0.1-0.2,0.1-0.5,0.2-0.7
			c-0.2,0.2-0.4,0.4-0.6,0.5c-0.5,0.5-1,1.1-1.6,1.6c-0.4,0.3-0.8,0.6-1.2,0.9c-0.1,0.1-0.2,0.1-0.3,0.2c-0.2,0.1-0.3,0-0.4-0.1
			c-0.1-0.1-0.2-0.2-0.3-0.3c-0.2-0.2-0.4-0.4-0.5-0.8c0-0.1-0.1-0.1-0.1-0.2c-0.2-0.4-0.2-0.8-0.1-1.3c0.2-1.1,0.7-2.1,1.4-3.1
			c0.6-0.8,1.4-1.5,2.2-2c0.5-0.3,1-0.5,1.5-0.4c0.4,0,0.6,0.2,0.8,0.5c0.1,0.1,0.2,0.3,0.3,0.5c0.5-0.5,0.9-0.9,1.3-1.3
			c0.6-0.6,1.2-1.2,1.7-1.8c0,0,0.1-0.1,0.1-0.1c0.2-0.2,0.2-0.2,0.5-0.2c-0.1,0.1-0.2,0.2-0.2,0.3l0,0c0.2-0.1,0.3-0.2,0.5-0.3
			c0,0,0,0,0,0c-0.2,0.2-0.3,0.5-0.5,0.8c0.2-0.2,0.4-0.4,0.5-0.5c0,0,0.1,0,0.1,0.1c0,0.2,0.2,0.4,0,0.7c0,0,0.1-0.1,0.2-0.1
			c-0.1,0.2-0.1,0.3-0.2,0.4c-0.6,0.9-1.2,1.8-1.8,2.7c-0.3,0.4-0.5,0.9-0.7,1.3c-0.2,0.3-0.3,0.6-0.5,0.9c-0.2,0.3-0.4,0.7-0.5,1
			c-0.2,0.5-0.4,1-0.6,1.5c-0.1,0.3-0.4,0.7-0.4,1c0,0.1,0,0.2-0.1,0.2c0.5-0.1,0.9-0.3,1.3-0.6c0.8-0.5,1.4-1.2,2-1.9
			c0.3-0.3,0.6-0.6,0.9-0.9c-0.1,0.2-0.2,0.3-0.3,0.5c0,0,0,0,0.1,0c0.1-0.1,0.2-0.2,0.4-0.4c0.1,0.2,0.2,0.4,0.3,0.7
			c0,0.1-0.1,0.2-0.1,0.3c-0.5,0.8-1.1,1.5-1.8,2.2c0-0.1,0.1-0.1,0.1-0.2c0,0,0,0,0,0c-0.2,0.2-0.4,0.3-0.5,0.5
			c-0.4,0.5-0.9,0.8-1.4,1c-0.2,0.1-0.4,0.1-0.6,0.2c0,0,0,0-0.1,0.1c0,0-0.1,0-0.1,0C155.1,24.9,154.8,24.7,154.7,24.4z
			 M151.6,19.9c0.2-0.2,0.3-0.5,0.5-0.7c0,0,0,0,0,0C151.9,19.4,151.8,19.6,151.6,19.9C151.6,19.9,151.6,19.9,151.6,19.9z
			 M152.1,20.7c0.5-0.5,1.1-1,1.6-1.5c0.3-0.3,0.5-0.5,0.8-0.8l0.8-0.8c0,0,0,0,0-0.1c-0.1,0-0.2,0-0.2,0.1
			c-0.3,0.1-0.5,0.3-0.8,0.4c-1,0.8-1.7,1.8-2.4,2.8C151.9,20.8,152,20.8,152.1,20.7z M155.3,17.1c-0.2,0-0.4,0-0.5,0.1
			c-0.5,0.2-1,0.6-1.4,1c0,0.1-0.1,0.1-0.1,0.2c0.7-0.5,1.3-1,2.1-1.1C155.4,17.3,155.3,17.1,155.3,17.1z M154.3,20.5
			c-0.2,0.2-0.4,0.5-0.6,0.7c0,0,0,0,0,0C153.9,21,154.1,20.8,154.3,20.5C154.3,20.6,154.3,20.6,154.3,20.5z M155.5,25
			c0.3,0.2,0.6-0.1,0.9-0.2c0.1,0,0.2-0.1,0.3-0.1c-0.4,0.4-0.8,0.6-1.2,0.5C155.4,25.2,155.4,25.1,155.5,25
			C155.4,25,155.5,25,155.5,25z M155.6,24.6c0.2,0,0.4,0,0.6-0.1c0.2-0.1,0.3-0.2,0.5-0.3c0.2-0.1,0.3-0.3,0.5-0.5
			C156.6,24,156.1,24.3,155.6,24.6z M155.7,21.4l0.8-1.9c0,0,0,0-0.1,0C156.2,20.1,155.9,20.7,155.7,21.4
			C155.7,21.4,155.7,21.4,155.7,21.4z M156.9,23.6c-0.4,0.2-0.8,0.4-1.1,0.6C156,24.3,156.8,23.9,156.9,23.6z M157.8,22.8
			c-0.2,0.3-0.6,0.4-0.8,0.7c0.6-0.4,1.1-0.9,1.5-1.4C158.3,22.3,158,22.6,157.8,22.8z"/>
		<path class="st3" d="M166.2,21.6c0.5-0.5,0.9-1,1.4-1.5c0.2-0.3,0.5-0.6,0.8-0.9c0.1,0.2,0.2,0.3,0,0.6c-0.7,0.8-1.4,1.6-2,2.4
			c-0.7,0.8-1.4,1.6-2.3,2.3c-0.6,0.6-1.3,1.2-1.9,1.7c-0.4,0.3-0.9,0.6-1.4,0.7c-0.3,0.1-0.5,0.1-0.7,0c-0.1,0-0.1-0.1-0.2-0.3
			c-0.1,0-0.2,0-0.2-0.1c-0.2-0.2-0.3-0.4-0.5-0.6c-0.2-0.2-0.3-0.4-0.5-0.6c-0.2-0.4-0.3-0.7-0.5-1.1c-0.1-0.1,0-0.3,0-0.4
			c0-0.3,0-0.5,0.1-0.8c0.1-0.3,0.2-0.6,0.3-1c0.2-0.4,0.3-0.8,0.5-1.2c0.3-0.5,0.6-0.9,0.9-1.4c0.3-0.5,0.7-1,1.1-1.4
			c0.3-0.3,0.6-0.6,1-0.9c0,0,0,0,0,0c-0.1,0.1-0.1,0.1-0.2,0.2l0,0c0.1-0.1,0.2-0.2,0.4-0.3c0.4-0.3,0.8-0.7,1.2-1
			c0.2-0.1,0.4-0.1,0.7-0.1c-0.8,0.3-1.5,0.8-2.1,1.6c0.1,0,0.1-0.1,0.2-0.1c0.3-0.2,0.6-0.5,0.9-0.7c0.2-0.1,0.5-0.1,0.7-0.2
			c0,0,0.1-0.1,0.1-0.2c0,0,0.1-0.1,0.1-0.1c0,0,0.1,0,0.2,0c0-0.1,0-0.1-0.1-0.2c0.3,0,0.5,0.1,0.8,0.1v0c-0.1,0-0.2,0-0.3,0.1
			c0.2,0.1,0.4,0.2,0.5,0.3c0.1,0.1,0.1,0.3,0.1,0.5c0,0.2-0.1,0.5-0.2,0.8c0-0.1-0.1-0.2-0.1-0.3l-0.2,0.7h0c0-0.2,0-0.5,0.1-0.7
			c-0.1,0-0.1,0-0.1,0c-0.2,0.2-0.5,0.3-0.7,0.5c-0.4,0.4-0.9,0.9-1.3,1.4c-0.5,0.6-0.9,1.2-1.3,1.8c-0.2,0.3-0.3,0.7-0.5,1
			c-0.1,0.3-0.4,0.4-0.7,0.6c0,0-0.1,0-0.1,0.1c0,0.2,0,0.4-0.1,0.5c0,0.3-0.1,0.6-0.1,0.8c0.3-0.1,0.6-0.1,0.9-0.2c0,0,0,0.1,0,0.1
			c-0.1,0.1-0.1,0.1-0.2,0.2c0.7-0.1,3-2,4.5-3.3c-0.4,0.4-0.9,0.9-1.3,1.3c0,0,0,0,0,0.1c0.1-0.1,0.3-0.2,0.4-0.3
			c0.7-0.7,1.5-1.4,2.2-2.2c0.4-0.4,0.8-0.8,1.2-1.2c0.1,0,0.1-0.1,0.2-0.1c0,0,0,0,0,0c0.3,0.5-0.2,0.8-0.5,1.1
			c-0.8,0.9-1.6,1.7-2.4,2.6c0,0-0.1,0.1-0.1,0.1c-0.3,0.2-0.4,0.4-0.4,0.5c0.2-0.2,0.4-0.4,0.5-0.5
			C165.6,22.1,165.9,21.9,166.2,21.6z M163.1,16.9c-0.2,0.1-0.3,0.3-0.5,0.4c-0.6,0.5-1.3,1-1.7,1.7c-0.1,0.2-0.2,0.3-0.3,0.5
			c-0.2,0.3-0.4,0.6-0.6,0.9c-0.2,0.3-0.4,0.6-0.4,0.9c0,0.2-0.2,0.4-0.2,0.5c-0.2,0.4-0.4,0.8-0.3,1.2c0-0.1,0.1-0.1,0.1-0.2
			c0.2-0.5,0.3-0.9,0.5-1.4c0.3-0.7,0.7-1.5,1.2-2.1c0.2-0.2,0.4-0.4,0.5-0.6c0.2-0.4,0.5-0.6,0.8-0.9
			C162.5,17.6,162.8,17.3,163.1,16.9C163.1,17,163.1,17,163.1,16.9z M161.6,25.6c0.4-0.2,0.7-0.5,1-0.7c0,0,0,0,0-0.1
			C162.3,25.1,162,25.3,161.6,25.6C161.6,25.6,161.6,25.6,161.6,25.6z M162.6,25.4c-0.3,0.2-0.6,0.4-0.9,0.6c0,0,0,0,0,0.1
			C162.1,25.8,162.4,25.6,162.6,25.4C162.7,25.4,162.6,25.4,162.6,25.4z M163.4,18.1C163.4,18.1,163.4,18.1,163.4,18.1
			C163.4,18.1,163.4,18.1,163.4,18.1C163.4,18.2,163.4,18.2,163.4,18.1C163.4,18.2,163.4,18.1,163.4,18.1z M163.8,17.8
			C163.8,17.8,163.7,17.8,163.8,17.8c-0.1,0.1-0.2,0.2-0.2,0.3h0.1L163.8,17.8z M163.6,18.1L163.6,18.1L163.6,18.1z M163.6,23.9
			c0.3-0.2,0.6-0.5,0.9-0.7c0,0,0-0.1-0.1-0.1L163.6,23.9C163.6,23.9,163.6,23.9,163.6,23.9z"/>
		<path class="st3" d="M166.6,25.9c-0.2,0.4-0.3,0.8-0.4,1.2c-0.1,0.3-0.2,0.7-0.3,1.1c0,0.1,0,0.3,0.1,0.4c-0.1,0-0.2,0.2-0.1,0.3
			c0.1,0.4,0.1,0.8,0.5,1c-0.2,0-0.3,0-0.5-0.2c-0.1-0.2-0.4-0.3-0.6-0.4c-0.1-0.1-0.2-0.1-0.3-0.3c-0.1-0.3-0.3-0.5-0.4-0.9
			c-0.1-0.3-0.1-0.6,0-0.9c0.2-0.9,0.4-1.7,0.6-2.6c0.2-0.7,0.5-1.4,0.7-2.1c0.3-0.8,0.5-1.5,0.9-2.3c0.3-0.8,0.7-1.6,1.1-2.5
			c0.3-0.6,0.6-1.3,0.9-1.9c0.2-0.5,0.5-1,0.8-1.5c0.5-0.9,1-1.9,1.6-2.8c0.4-0.8,0.9-1.6,1.4-2.3c0.2-0.3,0.5-0.6,0.7-0.9
			c0.1-0.2,0.2-0.4,0.3-0.6c0-0.1,0.1-0.1,0.2-0.1c0-0.1,0-0.2,0.1-0.2c0.1-0.2,0.3-0.4,0.4-0.5c0.2-0.2,0.3-0.5,0.5-0.7
			c0.5-0.6,1-1.3,1.7-1.8c0,0.1,0,0.1,0,0.2c0.3-0.1,0.3-0.1,0.2,0.2c0,0.1,0,0.2-0.1,0.3c0.1-0.1,0.2-0.2,0.3-0.3c0,0,0,0.1,0,0.1
			c0.1,0,0.1-0.1,0.2-0.1c0,0.1,0,0.1,0,0.2c0.1,0,0.2-0.1,0.3-0.1c-0.1,0.3-0.2,0.5-0.3,0.8c0.3-0.1,0.4,0,0.5,0.2
			c-0.1,0.1-0.1,0.2-0.2,0.3l0,0c0.1-0.1,0.1-0.1,0.3-0.3c-0.2,0.5-0.4,0.9-0.6,1.4c-0.9,1.4-1.8,2.9-2.7,4.3
			c-0.6,0.9-1.1,1.9-1.8,2.8c-0.7,1-1.3,2.1-2,3.1c-0.3,0.5-0.6,1-0.8,1.5c0,0,0,0.1,0,0.1c0.9-0.7,1.8-1.5,2.7-2.2
			c0.9-0.8,1.8-1.6,2.9-2.3c-0.1,0.1-0.1,0.2-0.1,0.3c0.1,0,0.1-0.1,0.2-0.2c0,0.1-0.1,0.2-0.1,0.3c0.1-0.1,0.2-0.2,0.3-0.2
			c0,0.1,0,0.2,0,0.3c0.1,0.1,0.2,0.1,0.3,0c0.1-0.1,0.2,0,0.3-0.1l-0.1,0.4c0.5,0,0.4,0.1,0.2,0.8c0.1,0,0.1-0.1,0.2-0.1
			c0,0,0,0.1,0,0.1c0,0.1,0,0.2,0,0.4c0,0.1-0.1,0.2-0.1,0.2c-0.6,0.6-1.1,1.2-1.7,1.8c-0.8,0.8-1.7,1.6-2.6,2.4c0,0,0,0,0,0.1
			c0.1,0,0.1,0,0.2,0c0.2,0,0.5-0.1,0.7-0.1c0.1,0,0.1-0.1,0.2-0.1c0.1,0,0.3-0.1,0.4-0.1c0.1,0,0.3,0,0.4-0.1
			c0.9-0.2,1.7-0.1,2.3,0.2c-0.1,0.1-0.3,0.3-0.3,0.4c0,0.1,0.1,0.3,0.1,0.4c0.1,0,0.2-0.1,0.3-0.1c0,0.1-0.1,0.2-0.1,0.3
			c0,0-0.1,0-0.1,0.1c0.1,0.1,0.2,0.2,0.4,0.3c-0.3,0.1-0.4-0.1-0.7,0.1c-0.1,0.1-0.3,0-0.5,0c-0.6,0-1.1,0.2-1.7,0.4
			c-0.9,0.5-1.9,1-2.8,1.4c-0.4,0.2-0.8,0.3-1.3,0.5c-0.2,0.1-0.4,0.1-0.5,0.2c-0.4,0.2-0.7,0.1-0.9-0.1c-0.2-0.2-0.4-0.5-0.6-0.7
			c-0.1-0.1-0.1-0.2-0.1-0.3c0,0-0.1,0-0.1,0C167,24.6,166.8,25.2,166.6,25.9z M167.3,21.1C167.2,21.1,167.2,21.1,167.3,21.1
			c-0.8,1.6-1.6,3.3-1.9,4.9C166,24.5,166.6,22.8,167.3,21.1z M167.1,23.6c0-0.1,0-0.2-0.1-0.3c-0.7,1.5-1.3,3-1.6,4.6
			C166,26.4,166.6,24.9,167.1,23.6z M168.8,19.5C168.8,19.5,168.8,19.5,168.8,19.5L168,21C168.5,20.6,168.6,20,168.8,19.5z
			 M171.7,22.6c-0.4,0-1.8,0.7-1.9,0.9C170.4,23.2,171.1,22.9,171.7,22.6z M171.5,23.6c0.3-0.1,0.6-0.3,0.9-0.4c0,0,0,0,0-0.1
			C172.1,23.2,171.8,23.4,171.5,23.6C171.5,23.5,171.5,23.6,171.5,23.6z M171.6,21.5c1-0.9,2-1.8,3-2.7c0,0,0,0-0.1-0.1
			C173.5,19.6,172.5,20.5,171.6,21.5C171.6,21.5,171.6,21.5,171.6,21.5z M174.8,18.2c-0.6,0.6-1.3,1.2-1.9,1.7c0,0,0,0,0,0.1
			C173.6,19.5,174.2,18.9,174.8,18.2C174.8,18.3,174.8,18.3,174.8,18.2z"/>
	</g>
</g>
<g>
</g>
<g>
</g>
<g>
</g>
<g>
</g>
<g>
</g>
<g>
</g>
<g>
</g>
<g>
</g>
<g>
</g>
<g>
</g>
<g>
</g>
<g>
</g>
<g>
</g>
<g>
</g>
<g>
</g>
</svg>
