<svg version="1.1" id="Layer_1" xmlns="http://www.w3.org/2000/svg" xmlns:xlink="http://www.w3.org/1999/xlink" x="0" y="0" viewBox="0 0 182 31" style="enable-background:new 0 0 182 31" xml:space="preserve"><style>.st1{fill:#5f338c}.st3{fill:#222}</style><g transform="translate(0 7)" id="Group_94_00000077318878524226672390000007431893220391965858_"><defs><path id="SVGID_1_" d="M5.7-3.9H85v24.6H5.7z"/></defs><clipPath id="SVGID_00000116931844658220066670000014945393789119712916_"><use xlink:href="#SVGID_1_" style="overflow:visible"/></clipPath><g id="Group_93_00000093866613756525085130000017825401223442519205_" style="clip-path:url(#SVGID_00000116931844658220066670000014945393789119712916_)"><path id="Path_21_00000035523369858969142240000005521799505529162171_" class="st1" d="M20.6 10.9c4.9-3.5 4.2-5.7 4.1-7.6-.7-4.1-4.3-7.1-8.4-7.1H5.7v24.2h6.5l.1-8.1H14l5.9 8.1h7.5c.1 0-2.3-3.4-6.8-9.5m-8.2-2.7v-8c4.1-.7 5.7 1.4 5.9 4-.5 5.2-5.9 4-5.9 4"/><path id="Path_22_00000182511457803227954100000002995127083260127397_" class="st1" d="M34.6.2C29.1.1 24.5 4.5 24.3 10c-.1 5.6 4.3 10.2 9.8 10.3 5.6.1 10.2-4.3 10.3-9.8v-.2c.1-5.5-4.3-10-9.8-10.1m0 15.2c-1.8 0-3.2-2.3-3.2-5.1s1.4-5.1 3.2-5.1 3.2 2.3 3.2 5.1-1.4 5.1-3.2 5.1"/><path id="Rectangle_27_00000098208751075153981210000008499848537166610840_" class="st1" d="M46 1.4h6.4v19H46z"/><path id="Path_23_00000009555465930697534170000004203360843414249859_" class="st1" d="M59.7 1.4h13.1v11.3s.4 4.5 3.9 2.7c1.8-1 2-1.7 2-3.3V1.4h6.4v19h-1.7l-2.6-2.5c-1.6 2-4.1 3-6.6 2.8-2.4-.1-7.2-.4-7.6-7 .2-8.4 0-11.3 0-11.3l-8.2 8.1 9.9 9.9h-8.1l-8.9-8.8.8-2.4 7.6-7.8z"/></g></g><g style="enable-background:new"><path class="st3" d="M100.2 7.5c.1 0 .2-.1.2-.1.1-.1.1-.1.2-.1.2 0 .4-.1.5-.2.1 0 .1 0 .3-.1l-.1.1c.1 0 .2-.1.3-.2 0 0 0-.1.1-.1.1-.1.3-.1.4-.2.6-.2 1.3-.5 1.9-.7.2-.1.3-.3.5-.4-.1.1-.1.2-.2.3h.1c.2-.2.3-.4.5-.6-.1.1-.2.2-.3.4.3-.1.5-.2.7-.2.6-.2 1.3-.4 1.9-.6.6-.1 1.3-.2 1.9-.4.3-.1.5 0 .8-.1.4-.1.8-.1 1.2-.2.6-.1 1.2-.2 1.7-.1.4.1.7.2 1 .4.2.2.6.2.8.4.2.2.4.5.5.8.1.3.2.6.2 1v.7c-.1 0-.1-.1-.1-.1-.1.2-.1.5-.2.7 0 .1-.1.1-.1.2 0-.1-.1-.1-.1-.2s-.1-.3-.1-.4h-.1v-.2c-.1.1-.2.2-.3.4 0-.2-.1-.5-.1-.7l-.1.3h-.1c-.1-.2-.1-.4-.3-.5-.1-.1-.3-.1-.4-.1-.7 0-1.3 0-2 .1-.4 0-.9.1-1.3.2-.9.2-1.8.4-2.6.7-.5.2-1.1.4-1.6.6l-.1.1c-.6.9-1.2 1.7-1.9 2.6-.5.7-.9 1.3-1.4 2-.6.8-1.1 1.6-1.7 2.4l-1.2 1.8c.9-.1 1.8-.3 2.6-.5.9-.1 1.8-.1 2.6-.1-.4 0-.9.1-1.3.1v.1l.7-.1v.3h-.2c.2 0 .4 0 .6-.1-.1 0-.2-.1-.2-.1.8-.1 1.3.1 1.7.6l-.6.3c.1.1.3.1.5.2l-.1.1c.1 0 .2.1.3.1 0 .1.1.3.1.4h-.3c-.8.1-1.6.2-2.4.4-.6.1-1.2.3-1.8.5-.5.2-1.1.3-1.6.5-.3.1-.7.3-1 .5l-.9.3c-.1 0-.3.1-.4.2l-.3.3c-.4.8-.8 1.5-1.2 2.3-.3.6-.5 1.2-.8 2l.1-.6h-.1c-.2.5-.4.9-.6 1.4-.2.5-.3 1-.4 1.5-.1.5-.2.9-.3 1.4h-.1c0-.2-.1-.4-.1-.5-.1.1-.1.2-.2.4h-.1v-.8s0-.1.1-.1c.3-.2.2-.5.3-.7.2-.7.4-1.4.7-2.1.4-1.1.9-2.2 1.3-3.3.1-.2.2-.3.3-.6-.6.2-.6.8-.9 1.2.1-.3.3-.6.4-.9h-.1c-.1.1-.2.1-.2.2-.2.6-.5 1.2-.7 1.8-.2.6-.5 1.2-.7 1.7-.1.2-.2.5-.2.7-.1.4-.3.9-.3 1.3-.1.3-.1.5-.1.8 0 .1-.1.3-.1.4 0 0-.1 0-.1-.1-.1-.4-.1-.7 0-1.2.2-.7.3-1.4.6-2.2.3-.9.6-1.9 1-2.8 0-.1.1-.2.1-.4-.5.2-1 .3-1.5.5-.4.1-.8.2-1-.2l-.4-.4-.3-.3c.1-.1.2-.2.3-.2-.1 0-.2 0-.3.1-.1-.1.4-.5-.1-.5l.4-.4H92c.4-.4.8-.5 1.2-.7.2-.1.5-.2.7-.3.2 0 .4-.2.6-.2 0 0 .1 0 .2-.1.6-.3 1.2-.5 1.8-.8.2-.1.3-.2.4-.4.4-1 1-2 1.5-3 .2-.4.3-.8.1-1.2 0-.1.1-.3-.1-.4-.3-.1-.5-.2-.8-.1h-.4c-.6.1-1.2.1-1.8.2-.1 0-.2-.1-.2-.1v-.3c-.3.1-.6-.1-.8-.3.1-.1.1-.2.2-.3h-.3l.3-.3c-.3.1-.6.1-.6-.1 0-.1-.3-.3 0-.5-.1-.1-.2-.1-.3-.2 0 0 0-.2.1-.3.1-.1.3-.2.3-.5 0-.1.2-.2.3-.3.4-.3.9-.6 1.3-.8.8-.4 1.5-.9 2.3-1.1.4-.1.8-.4 1.1-.5h.2c.2-.2.4-.3.6-.2.1-.2.3-.1.4-.3h-.1zM93.5 28c.5-2 1-4 1.8-6-.9 1.9-2.1 5.6-1.8 6zm1.1-1.4c-.2.7-.6 1.3-.5 2l.5-2zm1.7-16.9c-.3.2-.5.3-.7.4-.2.1-.5.3-.7.4.3.1 1.1-.4 1.4-.8zm-.1 1.2c.1 0 .2-.1.4-.1.3-.2.6-.3.9-.5.8-.4 1.7-.8 2.5-1.2.6-.3 1.2-.5 1.9-.8.2-.1.4-.2.7-.3v-.1c-2.2.8-4.3 1.8-6.4 3zm.6 7.4s.1 0 0 0c.5-.6.9-1.2 1.1-2-.4.6-.7 1.3-1.1 2zm1.5-1.8c-.2.5-.4.9-.6 1.4h.1c.2-.4.4-.9.6-1.4h-.1zm-.3 1.4c.3-.2.2-.5.4-.8-.1.3-.3.5-.4.8zm.3-.9c.4-.5.5-1 .6-1.5-.2.4-.4.9-.6 1.5zm1.6-4.9c.2-.3.3-.5.5-.8.1-.2.2-.3.4-.6-.7.4-1.3.7-1.9 1 .1.1.3.2.3.3.1.1.1.2.2.3 0 .1.1.2.1.4.1-.2.2-.4.4-.6zm1.4.7c.2-.3.4-.7.6-1-.8.5-1 1.2-1.4 1.8-.7 1-.8 1.4-.9 2l3-4.5h-.1c-.3.5-.8 1.1-1.2 1.7zm.3-1.5c0 .1-.1.1 0 0-.5.7-.9 1.3-1.3 1.9-.2.2-.3.5-.5.7 0 .1 0 .2-.1.3v.3h.1c.6-1.1 1.2-2.1 1.8-3.2zm-1.4 3.8 1.1-1.7c-.4.6-.8 1.1-1.1 1.7zm.4-3.5c.2-.3.4-.7.7-1-.3.1-.7.7-.7 1zm2.6-2c-.2.1-.5.5-.5.8.2-.3.3-.5.5-.8z"/><path class="st3" d="M108.7 27.1c.2-.1.2-.3.4-.4.2-.2.3-.4.5-.7l.3-.3c-.3.5-.6 1-1 1.5-.3.5-.7.9-1.1 1.4-.4.4-.8.8-1.2 1.1-.3.3-.8.2-1 0-.3-.4-.5-.7-.7-1.1-.2-.3-.3-.6-.2-1.1 0-.1 0-.2-.1-.2l-.1.3v-.9c-.1-.5.2-1 .1-1.5 0-.3.2-.5.2-.8 0-.1.2-.3 0-.4-.1 0 0-.2.1-.4l-.1.1h-.1c.2-.4.3-.9.5-1.3.1-.2.1-.3.1-.5.2-.9.6-1.7 1-2.6.3-.6.6-1.3.8-1.9.3-.6.6-1.3.9-1.9.2-.4.3-.8.5-1.1.2-.5.4-.9.7-1.4.2-.4.5-.8.7-1.2l.9-1.5 1.2-1.8c.3-.4.5-.7.8-1 .3-.4.7-.8.9-1.2.1-.3.3-.2.4-.3 0 .1-.1.2-.1.3h.1c.1-.2.2-.3.4-.5.1-.1.2-.1.2-.1.1 0 .2 0 .2-.1h.2v.2c-.1.3-.3.6-.4.9.2-.2.3-.4.5-.6.1.3-.2.5-.2.8 0 .2-.3.5-.4.7l.1.1c.2-.2.4-.5.7-.7-.2.4-.3.8-.5 1.1.1-.2.2-.3.4-.5 0 .1.1.2.1.3l-.3.6c-.3.5-.6 1.1-1 1.6-.4.6-.8 1.3-1.3 1.9-.4.7-.9 1.5-1.3 2.2-.4.7-.8 1.5-1.2 2.2 0 .1-.1.2-.1.3-.1.2-.2.3-.3.4-.1.1-.1.4-.1.5 0 .1-.1.1-.2.1-.3.6-.6 1.2-.9 1.7-.3.6-.5 1.2-.8 1.7-.2.5-.4 1.1-.7 1.6.1-.7.5-1.3.7-2-.7 1.7-1.5 3.4-1.9 5.2 0-.1 0-.2.1-.3l-.3.9h.1c0-.1.1-.3.1-.4h.1l-.3 1c.6-.1.9-.6 1.2-.9.2-.2.4-.3.6-.5.2-.2.3-.5.5-.7.2-.3.4-.5.6-.8.3-.4.7-.9 1.1-1.3.4-.5.8-1 1.3-1.4.4-.4.8-.9 1.2-1.3.1-.1.3-.2.5-.3-.1.1-.1.1-.1.2s.1.2.1.4c.1-.1.2-.1.3-.2 0 .4-.4.6-.6.9-.3.4-.8.7-1 1.2-.3.5-.7 1-1 1.5-.8 1.2-1.7 2.3-2.5 3.4v.1c1.5-1.9 2.9-3.8 4.4-5.7-.7 1-1.4 1.9-2.2 2.9h.1l.2-.2c-.2.3-.4.6-.6 1-.3.4-.6.8-.8 1.2-.3.4-.6.8-.9 1.3l-.1.1c-.2.3-.6.4-.8.7.4-.1.6-.3.9-.7 0-.3.2-.6.5-.9zm-2.9-5.4.3-.9h-.1l-.3.9h.1zm.4 7.7c-.2.1-.3.2-.5.3.4.1.7-.3 1-.5-.3-.1-.7-.1-.8.2h.3zm.2-6.3-.3.9c.2-.3.3-.6.3-.9.1 0 .1 0 0 0zm1.2-5.2c-.2.4-.3.7-.5 1.1h.1l.4-1.1c.1.1 0 .1 0 0zm.6.8c-.2.5-.4 1-.7 1.5l.1-.1-.2.6h.1l.7-2c.1 0 0 0 0 0zm3.8-5.6c-.2.3-.4.5-.5.8-.1.1-.1.2-.1.3-.2.3-.4.5-.6.8-.2.3-.4.5-.5.8-.1.2-.4.5-.2.7l.1-.1c-.1-.1-.1-.2.1-.3V16c.4-.8.9-1.5 1.3-2.3.2-.1.3-.4.4-.6zm-.6.1c.2-.2.3-.5.4-.7-.2.2-.3.5-.4.7zm2.4-3.4c-.2.3-.4.6-.6 1-.1.2-.2.3-.3.5-.1.2-.2.4-.3.5h.1c.1-.1.2-.3.2-.4.2-.5.6-1.1.9-1.6.3-.3.5-.6.7-.9h-.1c-.2.2-.4.5-.6.9 0-.1 0 0 0 0z"/><path class="st3" d="M117.2 24.4c0-.1-.1-.3-.2-.4-.2-.3-.4-.7-.4-1 0-.5.1-.9.3-1.4.1-.2.1-.5.2-.7-.2.2-.4.4-.6.5-.5.5-1 1.1-1.6 1.6l-1.2.9c-.1.1-.2.1-.3.2-.2.1-.3 0-.4-.1l-.3-.3c-.2-.2-.4-.4-.5-.8 0-.1-.1-.1-.1-.2-.2-.4-.2-.8-.1-1.3.2-1.1.7-2.1 1.4-3.1.6-.8 1.4-1.5 2.2-2 .5-.3 1-.5 1.5-.4.4 0 .6.2.8.5.1.1.2.3.3.5l1.3-1.3c.6-.6 1.2-1.2 1.7-1.8l.1-.1c.2-.2.2-.2.5-.2-.1.1-.2.2-.2.3.2-.1.3-.2.5-.3-.2.2-.3.5-.5.8l.5-.5s.1 0 .1.1c0 .2.2.4 0 .7 0 0 .1-.1.2-.1-.1.2-.1.3-.2.4l-1.8 2.7c-.3.4-.5.9-.7 1.3-.2.3-.3.6-.5.9-.2.3-.4.7-.5 1l-.6 1.5c-.1.3-.4.7-.4 1 0 .1 0 .2-.1.2.5-.1.9-.3 1.3-.6.8-.5 1.4-1.2 2-1.9l.9-.9c-.1.2-.2.3-.3.5h.1l.4-.4c.1.2.2.4.3.7 0 .1-.1.2-.1.3-.5.8-1.1 1.5-1.8 2.2 0-.1.1-.1.1-.2-.2.2-.4.3-.5.5-.4.5-.9.8-1.4 1-.2.1-.4.1-.6.2l-.1.1h-.1c-.3-.1-.5-.3-.6-.6zm-3.1-4.5c.2-.2.3-.5.5-.7-.2.2-.4.4-.5.7zm.4.8c.5-.5 1.1-1 1.6-1.5l.8-.8.8-.8v-.1c-.1 0-.2 0-.2.1-.3.1-.5.3-.8.4-1 .8-1.7 1.8-2.4 2.8.1 0 .1 0 .2-.1zm3.2-3.6c-.2 0-.4 0-.5.1-.5.2-1 .6-1.4 1 0 .1-.1.1-.1.2.7-.5 1.3-1 2.1-1.1 0 0 0-.2-.1-.2zm-1 3.4c-.2.2-.4.5-.6.7.3-.2.5-.4.6-.7.1.1 0 .1 0 0zM118 25c.3.2.6-.1.9-.2.1 0 .2-.1.3-.1-.4.4-.8.6-1.2.5-.1 0-.1-.1 0-.2-.1 0-.1 0 0 0zm0-.4c.2 0 .4 0 .6-.1.2-.1.3-.2.5-.3.2-.1.3-.3.5-.5-.5.3-1 .6-1.6.9zm.2-3.2.8-1.9h-.1c-.3.6-.5 1.2-.7 1.9-.1 0-.1 0 0 0zm1.2 2.2c-.4.2-.8.4-1.1.6.2.1 1-.3 1.1-.6zm.8-.8c-.2.3-.6.4-.8.7.6-.4 1.1-.9 1.5-1.4-.2.2-.4.5-.7.7z"/><path class="st3" d="M125.4 25.5c0-.1 0-.1-.1-.2 0 .1 0 .2-.1.3-.3.6-.9 1-1.5 1.2-.1.1-.2-.1-.3 0-.3 0-.7.2-1 0-.2-.1-.4-.1-.6-.1-.5-.1-1-.2-1.4-.3l-1.2-.6s0-.1-.1-.1c-.1-.2-.2-.4-.4-.5-.2-.1-.2-.3-.3-.5h.1c.1-.1.1-.2.2-.3.3 0 .6.1.9.1.3 0 .6.1.8.1h.8c.3.1.7 0 1-.1.4-.1.9-.3 1.2-.7v-.3l-.9-1.5c-.2-.3-.2-.8-.3-1.1 0-.2-.2-.4-.1-.6 0-.5.1-.9.2-1.4.1-.4.4-.8.6-1.2.3-.4.6-.8 1-1.1.4-.3.8-.7 1.2-1 .5-.3 1-.7 1.5-.9.5-.3 1.1-.6 1.6-.5.3 0 .6.1.9.2.1 0 .1.1.2.2v.1c-.1.2-.1.3.1.4-.2.1-.2.2-.2.3v.2c-.2 0-.4.1-.5.1 0 .1 0 .2-.1.2-.4.2-.6.6-.9.8-1 .8-1.9 1.7-2.7 2.7-.4.5-.7 1.1-.9 1.7 0 .1 0 .3.1.4.2.3.4.5.5.8.1.1.1.2.2.3.1 0 0 .3.2.1 0 0 .1.1 0 .1-.2.2 0 .3 0 .4.1.5.2 1.1.2 1.7 0 .2.1.3.1.5v.3h-.1c.1-.1.1-.1.1-.2zm-1.7-.2c-.4.1-.7.3-1.1.4.3.1.8 0 1.1-.4zm1.6-8.3c1.1-.9 2.3-1.6 3.7-2-.1-.2-.3-.1-.6 0l-.6.3c-.3.2-.7.3-.9.5-.6.3-1.1.7-1.6 1.2 0-.1 0-.1 0 0zm3.4-1.6c-.1 0-.2.1-.3.1-.3.2-.6.3-.8.5.5-.2 1.1-.4 1.6-.7-.1-.1-.3 0-.5.1zm5 2.7c.3-.4.8-.7 1.3-1-.1 0-.1.1-.2.1v.1c.1 0 .2 0 .2-.1.4-.4.8-.1 1 .2 0 .1 0 .3.2.2 0 0 .1.1.1.2.1.1.2.2.2.3 0 .2.2.3 0 .5.2.2.1.5.2.7v.6c0 .4-.1.9-.1 1.3 0 .1-.1.2-.1.3-.2.6-.4 1.3-.6 1.9-.1.1-.1.3-.1.4 1-.3 1.7-.9 2.4-1.6.6-.5 1.1-1.1 1.7-1.7 0 0 .1-.1.2-.1l.1.1-1.5 1.7c.1-.1.2-.1.2-.2.1-.1.1-.2.2-.2.2-.1.3-.4.6-.4.2 0 .3-.3.5-.5l.3-.3h.1c0 .1-.1.2-.1.3-.4.5-.8 1-1.3 1.6-.2.3-.4.5-.6.8l.3-.3c.7-.5 1.2-1.2 1.8-1.8h.1c-.1.2-.2.5-.4.7-.3.4-.5.8-.8 1.1-.1.2-.3.3-.5.5-.4.4-.7.9-1.1 1.3-.4.4-.9.9-1.4 1.1-.5.3-.9.2-1.2-.3-.1-.1-.3-.2-.4-.3-.2-.2-.3-.5-.4-.7-.1-.3-.3-.5-.4-.8-.1-.1-.1-.3-.1-.4.1-.7.2-1.5.4-2.2.1-.2.1-.4.2-.7-1.8 1.6-3.1 3.4-4.3 5.4 0-.1 0-.2.1-.3.2-.3.3-.7.5-1 .1-.2.3-.4.5-.7.5-.7 1.1-1.4 1.6-2.1.4-.5.8-.9 1.2-1.4l.3-.3c.1-.2.3-.3.4-.5-.4 0-.2.7-.6.6-.2.1-.3.2-.4.3-.1.1-.3.1-.4.2l.6-.6c.2-.2.4-.3.5-.6-.2.1-.3.2-.4.3-.2.1-.3.3-.4.4l-.1-.1c.2-.2.3-.4.5-.6l.5-.5c-.2.2-.3.3-.5.4-.7.8-1.4 1.6-2 2.4-.3.3-.4.8-.8 1.1-.3.3-.5.6-.7.9-.2.3-.4.7-.6 1.1-.2.4-.5.9-.7 1.3-.1.3 0 .5 0 .7 0 .2 0 .3-.2.3.1.2.2.3.3.5h-.1c-.1 0-.1-.1-.2-.1 0 .1 0 .2-.1.2h-.1c-.1 0-.1 0-.2-.1-.3-.3-.4-.7-.6-1.1-.3-.8 0-1.6-.1-2.4 0-.5.2-1.1.3-1.6.1-.8.4-1.6.6-2.4.2-.7.5-1.4.8-2.1.1-.2.2-.5.3-.7.1-.4.3-.7.4-1.1.1-.3.3-.6.5-.9.3-.5.5-1 .8-1.5.2-.5.5-1 .8-1.4.4-.7.9-1.5 1.4-2.2.5-.8 1.1-1.6 1.6-2.4.4-.6.9-1.2 1.4-1.7.3-.3.5-.7.8-1l.4-.4.3-.3c0 .1.1.3.1.5.1-.1.2-.1.4-.2-.1.2-.1.3-.1.4h.1v.3c0 .2-.1.4-.2.6h.1l.5-.5c0 .1 0 .2.1.3l.2.2h.1c-.1.3-.2.6-.3.8-.2.4-.4.7-.6 1l-.6.9c-.4.5-.7 1.1-1.1 1.6-.8 1.1-1.5 2.2-2.3 3.3-.4.7-.9 1.4-1.3 2.1-.5.8-.9 1.7-1.3 2.5-.3.5-.6 1.1-.8 1.6l-.6 1.5c.6-.7 1.2-1.4 1.7-2.1.3-.3.6-.7.9-1h.1c.3-.2.5-.4.8-.6.1-.1.3-.2.4-.3-.3-.1-.4.1-.6.2-.2.2-.5.4-.7.6-.2.2 0 .1.1-.1zm-3.5 6.4c.1 0 .1 0 0 0-.3.7-.6 1.3-.9 2h-.1l1-2zm1.8-2.3.5-.7-.5.7zm3.6.2c0-.1.1-.1.1-.2V22c.1-.3.3-.6.1-.9V21c.2-.3.2-.7.2-1.1-.3 1.2-.6 2.4-1 3.7.1-.1.2-.1.2-.1.2-.4.3-.7.4-1.1zm1 2.3c0 .1-.1.1-.1.2l.1.1c.2-.2.5-.4.7-.6-.6.2-1.2.5-1.7.7.4-.1.7-.2 1-.4zm-.9.6c.4.5.7-.1 1.1-.2-.4.1-.7.1-1.1.2zm1.1-.5c.8-.3 1.4-.9 1.8-1.5-.6.6-1.2 1.1-1.8 1.5z"/><path class="st3" d="M138.8 29.3c0 .1 0 .2-.1.2h-.2c-.3-.4-.5-.8-.6-1.3-.1-.2 0-.4 0-.6h-.1l-.1.3h-.1v-1.4c0-.5.1-.9.3-1.4l.6-1.8c.2-.5.5-1 .6-1.4.2-.9.7-1.7 1.1-2.5.5-1 1-1.9 1.6-2.8.3-.6.7-1.2 1-1.8.2-.3.4-.6.6-.8.1-.2.2-.4.3-.5l.3-.3c0-.1 0-.2.1-.2.1-.2.3-.4.4-.6.1-.2.3-.5.5-.7.6-.8 1.1-1.6 1.6-2.3.5-.8 1.1-1.5 1.6-2.3.6-.8 1.1-1.5 1.7-2.2.1 0 .3.1.4.1-.1.2-.2.6-.3.9l.6-.9h.1l-.3.6v.2c0 .2 0 .4-.1.6l.1-.1c-.2.3-.3.6-.5.8.2-.3.4-.5.6-.8.1-.1.1-.2.2-.3 0 0 .1 0 .2-.1 0 .2 0 .3-.1.5s-.2.3-.3.5h.1c.1-.2.3-.3.4-.5.2.3 0 .7-.2 1-.7 1.2-1.4 2.3-2.1 3.5-.4.6-.9 1.2-1.3 1.8l-1.5 2.1c-.4.5-.7 1.1-1.1 1.7l-.6.9v-.1c-.2.4-.6.8-.7 1.2l-.3.3-2.1 3.9-.3.6c-.3.7-.6 1.3-.8 2-.2.6-.4 1.2-.6 1.7v.3c.2-.3.3-.7.5-1 .3-.5.6-1.1.9-1.6.3-.5.6-1.1.9-1.6.3-.5.7-.9 1-1.4l1.2-1.5c.5-.6 1-1.2 1.7-1.7l.1-.1v-.1c-.2.1-.3.3-.5.4h-.1c0-.1.1-.2.1-.2.5-.3.9-.7 1.4-1 .2-.1.4-.2.6-.2.4-.2.6.1.9.2.3.1.4.4.4.7 0 .5.2.8.3 1.3 0 .4-.1.9-.1 1.3 0 .5-.3 1-.5 1.5-.2.4-.4.9-.8 1.3-.5.6-1.1 1.2-1.7 1.8-.2.2-.6.4-.9.6-.1.1-.2.1-.2.2.1-.1.3-.1.4-.2l-.1.1c-.6.4-1.2.7-1.9.7-.2 0-.3-.1-.5-.1-.1 0-.1-.1-.1-.2-.3.1-.3-.2-.5-.4s-.3-.5-.5-.7c-.4.8-1.2 1.3-1.6 2.1h-.1c.2-.4.5-.9.8-1.3.1-.1.1-.3.1-.4h-.1l-.9 1.5h-.1c-.3.4-.6.8-.4 1.3.1.2-.1.4-.5.4.1.2.1.2.2.3zm.3-2.1c.1-.2.1-.3.2-.5.3-.8.6-1.7 1-2.5.3-.7.6-1.3.9-2 .4-.8.9-1.7 1.3-2.5.1-.1.1-.3.2-.4h-.1c-.1.2-.3.3-.4.5-.1.1-.1.2-.1.3-.1.3-.3.5-.5.8 0 .1 0 .1-.1.2-.2.4-.4.7-.6 1.1-.1.2-.2.3-.3.5-.1.3-.3.6-.4.9-.1.4-.3.7-.5 1.1l-.3.9c-.1.5-.2 1.1-.3 1.6-.1 0 0 0 0 0zm2.6-3.1c.8-.9 1.5-1.9 2.3-2.8.8-1 1.7-1.7 2.7-2.5l-.6.3c-.5.4-1 .9-1.5 1.3-1 1-1.9 2.2-2.8 3.3-.1.2-.1.3-.1.4zm5-4.5c-.1 0-.2 0-.3.1-.6.5-1.2.9-1.7 1.5-.9 1-1.8 2.1-2.7 3.1-.1.2-.2.4 0 .6.1.2.3 0 .4-.1.1 0 .2 0 .3-.1.8-.3 1.4-.9 2-1.5.4-.4.7-.8 1.1-1.2.4-.5.7-1 1-1.5.2-.3.3-.7.5-1h-.2c-.1-.1-.3 0-.4.1zm-2.8-3.6-.6.9h.1c.2-.2.4-.5.5-.9.1 0 0 0 0 0zm.3 9.3c.5-.4 1.1-.8 1.4-1.4l-1.4 1.4c0-.1 0 0 0 0zm1.3-6.4c.5-.3 1-.6 1.6-1-.5.1-1.4.6-1.6 1zm.9-.9c.3-.1.6-.3 1-.4-.1-.2-.7.1-1 .4zm.7-6.7c.1 0 .2-.1.2-.2.1-.2.2-.4.4-.5.3-.4.6-.7.8-1.2.1-.2.2-.4.4-.5.5-.3.4-.7.7-1v-.1c-1 1.1-1.7 2.3-2.5 3.5zm.9 6.5c.1.1.1.3.2.4 0 0 .1 0 .1-.1-.1-.1-.1-.3-.1-.4-.1 0-.1.1-.2.1zm6.7 6.6c0-.1-.1-.3-.2-.4-.2-.3-.4-.7-.4-1 0-.5.1-.9.3-1.4.1-.2.1-.5.2-.7-.2.2-.4.4-.6.5-.5.5-1 1.1-1.6 1.6l-1.2.9c-.1.1-.2.1-.3.2-.2.1-.3 0-.4-.1l-.3-.3c-.2-.2-.4-.4-.5-.8 0-.1-.1-.1-.1-.2-.2-.4-.2-.8-.1-1.3.2-1.1.7-2.1 1.4-3.1.6-.8 1.4-1.5 2.2-2 .5-.3 1-.5 1.5-.4.4 0 .6.2.8.5.1.1.2.3.3.5l1.3-1.3c.6-.6 1.2-1.2 1.7-1.8l.1-.1c.2-.2.2-.2.5-.2-.1.1-.2.2-.2.3.2-.1.3-.2.5-.3-.2.2-.3.5-.5.8l.5-.5s.1 0 .1.1c0 .2.2.4 0 .7 0 0 .1-.1.2-.1-.1.2-.1.3-.2.4l-1.8 2.7c-.3.4-.5.9-.7 1.3-.2.3-.3.6-.5.9-.2.3-.4.7-.5 1l-.6 1.5c-.1.3-.4.7-.4 1 0 .1 0 .2-.1.2.5-.1.9-.3 1.3-.6.8-.5 1.4-1.2 2-1.9l.9-.9c-.1.2-.2.3-.3.5h.1l.4-.4c.1.2.2.4.3.7 0 .1-.1.2-.1.3-.5.8-1.1 1.5-1.8 2.2 0-.1.1-.1.1-.2-.2.2-.4.3-.5.5-.4.5-.9.8-1.4 1-.2.1-.4.1-.6.2l-.1.1h-.1c-.2-.1-.5-.3-.6-.6zm-3.1-4.5c.2-.2.3-.5.5-.7-.2.2-.3.4-.5.7zm.5.8c.5-.5 1.1-1 1.6-1.5l.8-.8.8-.8v-.1c-.1 0-.2 0-.2.1-.3.1-.5.3-.8.4-1 .8-1.7 1.8-2.4 2.8 0 0 .1 0 .2-.1zm3.2-3.6c-.2 0-.4 0-.5.1-.5.2-1 .6-1.4 1 0 .1-.1.1-.1.2.7-.5 1.3-1 2.1-1.1l-.1-.2zm-1 3.4c-.2.2-.4.5-.6.7.2-.2.4-.4.6-.7 0 .1 0 .1 0 0zm1.2 4.5c.3.2.6-.1.9-.2.1 0 .2-.1.3-.1-.4.4-.8.6-1.2.5-.1 0-.1-.1 0-.2-.1 0 0 0 0 0zm.1-.4c.2 0 .4 0 .6-.1.2-.1.3-.2.5-.3.2-.1.3-.3.5-.5-.6.3-1.1.6-1.6.9zm.1-3.2.8-1.9h-.1c-.2.6-.5 1.2-.7 1.9zm1.2 2.2c-.4.2-.8.4-1.1.6.2.1 1-.3 1.1-.6zm.9-.8c-.2.3-.6.4-.8.7.6-.4 1.1-.9 1.5-1.4l-.7.7z"/><path class="st3" d="M166.2 21.6c.5-.5.9-1 1.4-1.5.2-.3.5-.6.8-.9.1.2.2.3 0 .6-.7.8-1.4 1.6-2 2.4-.7.8-1.4 1.6-2.3 2.3-.6.6-1.3 1.2-1.9 1.7-.4.3-.9.6-1.4.7-.3.1-.5.1-.7 0-.1 0-.1-.1-.2-.3-.1 0-.2 0-.2-.1-.2-.2-.3-.4-.5-.6-.2-.2-.3-.4-.5-.6-.2-.4-.3-.7-.5-1.1-.1-.1 0-.3 0-.4 0-.3 0-.5.1-.8.1-.3.2-.6.3-1 .2-.4.3-.8.5-1.2.3-.5.6-.9.9-1.4.3-.5.7-1 1.1-1.4.3-.3.6-.6 1-.9l-.2.2c.1-.1.2-.2.4-.3.4-.3.8-.7 1.2-1 .2-.1.4-.1.7-.1-.8.3-1.5.8-2.1 1.6.1 0 .1-.1.2-.1.3-.2.6-.5.9-.7.2-.1.5-.1.7-.2 0 0 .1-.1.1-.2l.1-.1h.2c0-.1 0-.1-.1-.2.3 0 .5.1.8.1-.1 0-.2 0-.3.1.2.1.4.2.5.3.1.1.1.3.1.5s-.1.5-.2.8c0-.1-.1-.2-.1-.3l-.2.7c0-.2 0-.5.1-.7h-.1c-.2.2-.5.3-.7.5-.4.4-.9.9-1.3 1.4-.5.6-.9 1.2-1.3 1.8-.2.3-.3.7-.5 1-.1.3-.4.4-.7.6 0 0-.1 0-.1.1 0 .2 0 .4-.1.5 0 .3-.1.6-.1.8.3-.1.6-.1.9-.2v.1l-.2.2c.7-.1 3-2 4.5-3.3l-1.3 1.3v.1c.1-.1.3-.2.4-.3.7-.7 1.5-1.4 2.2-2.2l1.2-1.2c.1 0 .1-.1.2-.1.3.5-.2.8-.5 1.1-.8.9-1.6 1.7-2.4 2.6l-.1.1c-.3.2-.4.4-.4.5l.5-.5c.6-.3.9-.5 1.2-.8zm-3.1-4.7c-.2.1-.3.3-.5.4-.6.5-1.3 1-1.7 1.7-.1.2-.2.3-.3.5l-.6.9c-.2.3-.4.6-.4.9 0 .2-.2.4-.2.5-.2.4-.4.8-.3 1.2 0-.1.1-.1.1-.2.2-.5.3-.9.5-1.4.3-.7.7-1.5 1.2-2.1.2-.2.4-.4.5-.6.2-.4.5-.6.8-.9.3-.2.6-.5.9-.9 0 .1 0 .1 0 0zm-1.5 8.7c.4-.2.7-.5 1-.7v-.1c-.3.3-.6.5-1 .8zm1-.2-.9.6v.1c.4-.3.7-.5.9-.7.1 0 0 0 0 0zm.8-7.3c0 .1 0 .1 0 0 0 .1 0 0 0 0zm.4-.3s-.1 0 0 0c-.1.1-.2.2-.2.3h.1l.1-.3zm-.2.3zm0 5.8c.3-.2.6-.5.9-.7 0 0 0-.1-.1-.1l-.8.8z"/><path class="st3" d="M166.6 25.9c-.2.4-.3.8-.4 1.2-.1.3-.2.7-.3 1.1 0 .1 0 .3.1.4-.1 0-.2.2-.1.3.1.4.1.8.5 1-.2 0-.3 0-.5-.2-.1-.2-.4-.3-.6-.4-.1-.1-.2-.1-.3-.3-.1-.3-.3-.5-.4-.9-.1-.3-.1-.6 0-.9.2-.9.4-1.7.6-2.6.2-.7.5-1.4.7-2.1.3-.8.5-1.5.9-2.3.3-.8.7-1.6 1.1-2.5.3-.6.6-1.3.9-1.9.2-.5.5-1 .8-1.5.5-.9 1-1.9 1.6-2.8.4-.8.9-1.6 1.4-2.3.2-.3.5-.6.7-.9l.3-.6c0-.1.1-.1.2-.1 0-.1 0-.2.1-.2.1-.2.3-.4.4-.5.2-.2.3-.5.5-.7.5-.6 1-1.3 1.7-1.8v.2c.3-.1.3-.1.2.2 0 .1 0 .2-.1.3l.3-.3v.1c.1 0 .1-.1.2-.1V5c.1 0 .2-.1.3-.1-.1.3-.2.5-.3.8.3-.1.4 0 .5.2-.1.1-.1.2-.2.3l.3-.3c-.2.5-.4.9-.6 1.4-.9 1.4-1.8 2.9-2.7 4.3-.6.9-1.1 1.9-1.8 2.8-.7 1-1.3 2.1-2 3.1-.3.5-.6 1-.8 1.5v.1c.9-.7 1.8-1.5 2.7-2.2.9-.8 1.8-1.6 2.9-2.3-.1.1-.1.2-.1.3.1 0 .1-.1.2-.2 0 .1-.1.2-.1.3.1-.1.2-.2.3-.2v.3c.1.1.2.1.3 0 .1-.1.2 0 .3-.1l-.1.4c.5 0 .4.1.2.8.1 0 .1-.1.2-.1v.5c0 .1-.1.2-.1.2-.6.6-1.1 1.2-1.7 1.8-.8.8-1.7 1.6-2.6 2.4v.1h.2c.2 0 .5-.1.7-.1.1 0 .1-.1.2-.1s.3-.1.4-.1c.1 0 .3 0 .4-.1.9-.2 1.7-.1 2.3.2-.1.1-.3.3-.3.4 0 .1.1.3.1.4.1 0 .2-.1.3-.1 0 .1-.1.2-.1.3 0 0-.1 0-.1.1.1.1.2.2.4.3-.3.1-.4-.1-.7.1-.1.1-.3 0-.5 0-.6 0-1.1.2-1.7.4-.9.5-1.9 1-2.8 1.4-.4.2-.8.3-1.3.5-.2.1-.4.1-.5.2-.4.2-.7.1-.9-.1-.2-.2-.4-.5-.6-.7-.1-.1-.1-.2-.1-.3h-.1c-.5.8-.7 1.4-.9 2.1zm.7-4.8c-.1 0-.1 0 0 0-.8 1.6-1.6 3.3-1.9 4.9.6-1.5 1.2-3.2 1.9-4.9zm-.2 2.5c0-.1 0-.2-.1-.3-.7 1.5-1.3 3-1.6 4.6.6-1.5 1.2-3 1.7-4.3zm1.7-4.1L168 21c.5-.4.6-1 .8-1.5zm2.9 3.1c-.4 0-1.8.7-1.9.9.6-.3 1.3-.6 1.9-.9zm-.2 1c.3-.1.6-.3.9-.4v-.1c-.3.1-.6.3-.9.5 0-.1 0 0 0 0zm.1-2.1 3-2.7-.1-.1c-1 .9-2 1.8-2.9 2.8zm3.2-3.3c-.6.6-1.3 1.2-1.9 1.7v.1c.7-.5 1.3-1.1 1.9-1.8 0 .1 0 .1 0 0z"/></g></svg>